<svg xmlns="http://www.w3.org/2000/svg" width="105.308" height="105.308" viewBox="0 0 105.308 105.308">
  <path id="ui_ux_icon" data-name="ui ux icon" d="M44.123,59.919H7.265A5.265,5.265,0,0,0,2,65.185v36.858a5.265,5.265,0,0,0,5.265,5.265H44.123a5.265,5.265,0,0,0,5.265-5.265V65.185A5.265,5.265,0,0,0,44.123,59.919ZM38.858,96.777H12.531V70.45H38.858ZM102.042,2H65.185a5.265,5.265,0,0,0-5.265,5.265V44.123a5.265,5.265,0,0,0,5.265,5.265h36.858a5.265,5.265,0,0,0,5.265-5.265V7.265A5.265,5.265,0,0,0,102.042,2ZM96.777,38.858H70.45V12.531H96.777Zm5.265,21.062H65.185a5.265,5.265,0,0,0-5.265,5.265v36.858a5.265,5.265,0,0,0,5.265,5.265h36.858a5.265,5.265,0,0,0,5.265-5.265V65.185A5.265,5.265,0,0,0,102.042,59.919ZM96.777,96.777H70.45V70.45H96.777ZM44.123,2H7.265A5.265,5.265,0,0,0,2,7.265V44.123a5.265,5.265,0,0,0,5.265,5.265H44.123a5.265,5.265,0,0,0,5.265-5.265V7.265A5.265,5.265,0,0,0,44.123,2ZM38.858,38.858H12.531V12.531H38.858Z" transform="translate(-2 -2)"/>
</svg>
