<svg width="396" height="262" viewBox="0 0 396 262" fill="none" xmlns="http://www.w3.org/2000/svg">
<path opacity="0.36" d="M149.68 256.48C220.505 256.48 277.92 199.065 277.92 128.24C277.92 57.415 220.505 0 149.68 0C78.8554 0 21.4404 57.415 21.4404 128.24C21.4404 199.065 78.8554 256.48 149.68 256.48Z" fill="#A6F6F8"/>
<path d="M182.799 218.527H154.084V247.242H182.799V218.527Z" fill="#E19974"/>
<path d="M395.435 256.168H0V261.747H395.435V256.168Z" fill="white"/>
<path d="M154.085 245.382V220.387C154.085 219.893 153.889 219.42 153.54 219.072C153.191 218.723 152.718 218.527 152.225 218.527H147.018C146.525 218.527 146.052 218.723 145.703 219.072C145.354 219.42 145.158 219.893 145.158 220.387V254.308C145.158 254.802 145.354 255.275 145.703 255.623C146.052 255.972 146.525 256.168 147.018 256.168H180.94C181.433 256.168 181.906 255.972 182.255 255.623C182.604 255.275 182.8 254.802 182.8 254.308V249.101C182.8 248.608 182.604 248.135 182.255 247.786C181.906 247.438 181.433 247.242 180.94 247.242H155.944C155.451 247.242 154.978 247.046 154.629 246.697C154.281 246.348 154.085 245.875 154.085 245.382Z" fill="#FFD9AE"/>
<path d="M172.905 247.242V256.168H199.76C200.253 256.168 200.726 255.972 201.075 255.623C201.424 255.275 201.62 254.802 201.62 254.308V249.101C201.62 248.608 201.424 248.135 201.075 247.786C200.726 247.438 200.253 247.242 199.76 247.242H172.905Z" fill="#FCF3E9"/>
<path d="M39.3514 147.945H13.5674V149.185H39.3514V147.945Z" fill="#A9C0FF"/>
<path d="M38.4135 140.34H12.6295V141.58H38.4135V140.34Z" fill="#A9C0FF"/>
<path d="M40.2433 156.21H14.4594V157.45H40.2433V156.21Z" fill="#A9C0FF"/>
<path d="M235.998 47.9634H210.214V49.2031H235.998V47.9634Z" fill="#A9C0FF"/>
<path d="M235.06 40.358H209.276V41.5978H235.06V40.358Z" fill="#A9C0FF"/>
<path d="M236.89 56.2276H211.106V57.4674H236.89V56.2276Z" fill="#A9C0FF"/>
<path d="M235.966 105.174H78.2681C76.214 105.174 74.5488 106.839 74.5488 108.893V221.007C74.5488 223.061 76.214 224.726 78.2681 224.726H235.966C238.02 224.726 239.685 223.061 239.685 221.007V108.893C239.685 106.839 238.02 105.174 235.966 105.174Z" fill="#FFD9AE"/>
<path d="M235.964 225.656H78.2663C77.0337 225.654 75.8521 225.164 74.9805 224.292C74.109 223.421 73.6187 222.239 73.6172 221.007V108.893C73.6187 107.66 74.109 106.479 74.9805 105.607C75.8521 104.735 77.0337 104.245 78.2663 104.244H235.964C237.197 104.245 238.379 104.735 239.25 105.607C240.122 106.478 240.612 107.66 240.613 108.893V221.007C240.612 222.239 240.122 223.421 239.25 224.292C238.379 225.164 237.197 225.654 235.964 225.656ZM78.2663 106.103C77.5265 106.103 76.817 106.397 76.2939 106.92C75.7707 107.443 75.4768 108.153 75.4768 108.893V221.007C75.4768 221.746 75.7707 222.456 76.2939 222.979C76.817 223.502 77.5265 223.796 78.2663 223.796H235.964C236.704 223.796 237.414 223.502 237.937 222.979C238.46 222.456 238.754 221.746 238.754 221.007V108.893C238.754 108.153 238.46 107.443 237.937 106.92C237.414 106.397 236.704 106.103 235.964 106.103H78.2663Z" fill="#E19974"/>
<path d="M246.323 105.174H88.6251C86.5709 105.174 84.9058 106.839 84.9058 108.893V221.007C84.9058 223.061 86.5709 224.726 88.6251 224.726H246.323C248.377 224.726 250.042 223.061 250.042 221.007V108.893C250.042 106.839 248.377 105.174 246.323 105.174Z" fill="white"/>
<path d="M233.833 117.443H101.116C99.0617 117.443 97.3965 119.108 97.3965 121.162V208.737C97.3965 210.791 99.0617 212.456 101.116 212.456H233.833C235.887 212.456 237.552 210.791 237.552 208.737V121.162C237.552 119.108 235.887 117.443 233.833 117.443Z" fill="#D9EBFF"/>
<path d="M246.323 225.656H88.6251C87.3925 225.654 86.2108 225.164 85.3393 224.292C84.4677 223.421 83.9774 222.239 83.976 221.007V108.893C83.9773 107.66 84.4675 106.478 85.3391 105.607C86.2107 104.735 87.3924 104.245 88.6251 104.244H246.323C247.556 104.245 248.737 104.735 249.609 105.607C250.481 106.478 250.971 107.66 250.972 108.893V221.007C250.971 222.239 250.481 223.421 249.609 224.292C248.737 225.164 247.556 225.654 246.323 225.656ZM88.6251 106.103C87.8853 106.103 87.1757 106.397 86.6526 106.92C86.1295 107.443 85.8356 108.153 85.8356 108.893V221.007C85.8356 221.746 86.1295 222.456 86.6526 222.979C87.1757 223.502 87.8853 223.796 88.6251 223.796H246.323C247.063 223.796 247.772 223.502 248.295 222.979C248.819 222.456 249.113 221.746 249.113 221.007V108.893C249.113 108.153 248.819 107.443 248.295 106.92C247.772 106.397 247.063 106.103 246.323 106.103H88.6251Z" fill="#F0BC83"/>
<path d="M233.832 117.443H101.116C100.129 117.443 99.1833 117.835 98.4858 118.532C97.7883 119.23 97.3965 120.176 97.3965 121.162V131.404H237.552V121.162C237.552 120.176 237.16 119.23 236.462 118.532C235.765 117.835 234.819 117.443 233.832 117.443ZM97.3965 200.586V208.737C97.3965 209.724 97.7883 210.67 98.4858 211.367C99.1833 212.065 100.129 212.456 101.116 212.456H233.832C234.819 212.456 235.765 212.065 236.462 211.367C237.16 210.67 237.552 209.724 237.552 208.737V200.586H97.3965Z" fill="#F0BC83"/>
<path d="M156.812 139.514H107.718V140.753H156.812V139.514Z" fill="#456BA3"/>
<path d="M156.812 150.103H107.718V151.343H156.812V150.103Z" fill="#456BA3"/>
<path d="M227.429 160.693H107.718V161.932H227.429V160.693Z" fill="#456BA3"/>
<path d="M227.429 171.282H107.718V172.522H227.429V171.282Z" fill="#456BA3"/>
<path d="M227.429 181.871H107.718V183.111H227.429V181.871Z" fill="#456BA3"/>
<path d="M227.429 192.461H107.718V193.701H227.429V192.461Z" fill="#456BA3"/>
<path opacity="0.28" d="M267.813 81.9069H177.672C175.618 81.9069 173.953 83.572 173.953 85.6262V148.831C173.953 150.885 175.618 152.55 177.672 152.55H267.813C269.867 152.55 271.532 150.885 271.532 148.831V85.6262C271.532 83.572 269.867 81.9069 267.813 81.9069Z" fill="#FFD9AE"/>
<path d="M277.186 72.7301H187.045C184.991 72.7301 183.326 74.3953 183.326 76.4494V139.654C183.326 141.709 184.991 143.374 187.045 143.374H277.186C279.24 143.374 280.905 141.709 280.905 139.654V76.4494C280.905 74.3953 279.24 72.7301 277.186 72.7301Z" fill="white"/>
<path d="M280.905 88.3047H183.326V90.1643H280.905V88.3047Z" fill="#A9C0FF"/>
<path d="M277.187 144.304H187.045C185.812 144.302 184.631 143.812 183.759 142.94C182.888 142.069 182.397 140.887 182.396 139.654V76.4494C182.397 75.2168 182.888 74.0351 183.759 73.1635C184.631 72.2919 185.812 71.8016 187.045 71.8003H277.187C278.419 71.8016 279.601 72.2919 280.472 73.1635C281.344 74.0351 281.834 75.2168 281.836 76.4494V139.654C281.834 140.887 281.344 142.069 280.472 142.94C279.601 143.812 278.419 144.302 277.187 144.304ZM187.045 73.66C186.305 73.66 185.596 73.9539 185.073 74.477C184.55 75.0001 184.256 75.7096 184.256 76.4494V139.654C184.256 140.394 184.55 141.104 185.073 141.627C185.596 142.15 186.305 142.444 187.045 142.444H277.187C277.926 142.444 278.636 142.15 279.159 141.627C279.682 141.104 279.976 140.394 279.976 139.654V76.4494C279.976 75.7096 279.682 75.0001 279.159 74.477C278.636 73.9539 277.926 73.66 277.187 73.66H187.045Z" fill="#FFD9AE"/>
<path d="M224.221 94.3962H195.641C194.957 94.3962 194.402 94.9513 194.402 95.636V124.216C194.402 124.9 194.957 125.455 195.641 125.455H224.221C224.906 125.455 225.461 124.9 225.461 124.216V95.636C225.461 94.9513 224.906 94.3962 224.221 94.3962Z" fill="#D9EBFF"/>
<path d="M266.135 94.3962H231.124C230.44 94.3962 229.885 94.9513 229.885 95.636V101.384C229.885 102.068 230.44 102.623 231.124 102.623H266.135C266.82 102.623 267.375 102.068 267.375 101.384V95.636C267.375 94.9513 266.82 94.3962 266.135 94.3962Z" fill="#FFD9AE"/>
<path d="M239.389 132.081H220.379C219.694 132.081 219.139 132.636 219.139 133.32V135.557C219.139 136.242 219.694 136.797 220.379 136.797H239.389C240.074 136.797 240.629 136.242 240.629 135.557V133.32C240.629 132.636 240.074 132.081 239.389 132.081Z" fill="#A9C0FF"/>
<path d="M266.135 105.813H231.124C230.44 105.813 229.885 106.368 229.885 107.052V112.8C229.885 113.485 230.44 114.04 231.124 114.04H266.135C266.82 114.04 267.375 113.485 267.375 112.8V107.052C267.375 106.368 266.82 105.813 266.135 105.813Z" fill="#FFD9AE"/>
<path d="M266.135 117.229H231.124C230.44 117.229 229.885 117.784 229.885 118.469V124.216C229.885 124.901 230.44 125.456 231.124 125.456H266.135C266.82 125.456 267.375 124.901 267.375 124.216V118.469C267.375 117.784 266.82 117.229 266.135 117.229Z" fill="#FFD9AE"/>
<path opacity="0.28" d="M129.976 50.5774H39.8354C37.7813 50.5774 36.1161 52.2426 36.1161 54.2967V117.502C36.1161 119.556 37.7813 121.221 39.8354 121.221H129.976C132.03 121.221 133.695 119.556 133.695 117.502V54.2967C133.695 52.2426 132.03 50.5774 129.976 50.5774Z" fill="#6299E8"/>
<path d="M115.891 41.4007H25.7499C23.6958 41.4007 22.0306 43.0658 22.0306 45.12V108.325C22.0306 110.379 23.6958 112.044 25.7499 112.044H115.891C117.945 112.044 119.61 110.379 119.61 108.325V45.12C119.61 43.0658 117.945 41.4007 115.891 41.4007Z" fill="white"/>
<path d="M119.61 56.9746H22.0306V58.8343H119.61V56.9746Z" fill="#A9C0FF"/>
<path d="M115.893 112.974H25.7499C24.5173 112.972 23.3356 112.482 22.464 111.61C21.5924 110.739 21.1021 109.557 21.1008 108.324V45.1194C21.1021 43.8867 21.5924 42.705 22.464 41.8334C23.3356 40.9618 24.5173 40.4716 25.7499 40.4702H115.893C117.126 40.4716 118.308 40.9618 119.179 41.8334C120.051 42.705 120.541 43.8867 120.542 45.1194V108.324C120.541 109.557 120.051 110.739 119.179 111.61C118.308 112.482 117.126 112.972 115.893 112.974ZM25.7499 42.3299C25.0101 42.3299 24.3006 42.6238 23.7775 43.1469C23.2544 43.67 22.9605 44.3795 22.9605 45.1194V108.324C22.9605 109.064 23.2544 109.774 23.7775 110.297C24.3006 110.82 25.0101 111.114 25.7499 111.114H115.893C116.633 111.114 117.342 110.82 117.866 110.297C118.389 109.774 118.683 109.064 118.683 108.324V45.1194C118.683 44.3795 118.389 43.67 117.866 43.1469C117.342 42.6238 116.633 42.3299 115.893 42.3299H25.7499Z" fill="#FFD9AE"/>
<path d="M105.012 64.9264H36.6282C35.9435 64.9264 35.3884 65.4815 35.3884 66.1662V71.9137C35.3884 72.5984 35.9435 73.1535 36.6282 73.1535H105.012C105.696 73.1535 106.251 72.5984 106.251 71.9137V66.1662C106.251 65.4815 105.696 64.9264 105.012 64.9264Z" fill="#FFD9AE"/>
<path d="M105.012 76.3428H36.6282C35.9435 76.3428 35.3884 76.8979 35.3884 77.5826V83.3301C35.3884 84.0148 35.9435 84.5699 36.6282 84.5699H105.012C105.696 84.5699 106.251 84.0148 106.251 83.3301V77.5826C106.251 76.8979 105.696 76.3428 105.012 76.3428Z" fill="#FFD9AE"/>
<path d="M106.251 90.1643H35.3884V92.024H106.251V90.1643Z" fill="#4D76B8"/>
<path d="M106.251 95.3261H35.3884V97.1857H106.251V95.3261Z" fill="#4D76B8"/>
<path d="M106.251 100.488H35.3884V102.348H106.251V100.488Z" fill="#4D76B8"/>
<path d="M263.499 255.445H296.284C294.454 255.445 292.677 254.83 291.239 253.697C289.801 252.565 288.786 250.981 288.357 249.202L277.757 205.212C277.329 203.433 276.313 201.849 274.876 200.717C273.438 199.584 271.661 198.968 269.83 198.969H267.17C265.938 198.968 264.723 199.247 263.614 199.784C262.506 200.32 261.533 201.101 260.77 202.067C260.006 203.034 259.472 204.16 259.206 205.363C258.94 206.565 258.95 207.813 259.235 209.011L268.069 246.128C268.354 247.326 268.364 248.573 268.098 249.776C267.832 250.978 267.298 252.105 266.534 253.071C265.771 254.037 264.798 254.818 263.69 255.355C262.581 255.892 261.366 256.17 260.134 256.17L263.499 255.445Z" fill="#F0BC83"/>
<path d="M265.889 198.894H298.751L309.439 245.465C309.713 246.66 309.715 247.902 309.444 249.097C309.172 250.293 308.634 251.412 307.871 252.371C307.107 253.33 306.137 254.104 305.032 254.637C303.928 255.169 302.717 255.445 301.491 255.445H296.284C294.454 255.445 292.677 254.83 291.239 253.697C289.801 252.565 288.786 250.981 288.357 249.202L277.757 205.212C277.328 203.433 276.313 201.849 274.876 200.717C273.438 199.584 271.661 198.968 269.83 198.968L265.889 198.894ZM249.028 240.166L252.338 250.388C252.847 252.06 253.88 253.524 255.284 254.565C256.689 255.606 258.39 256.167 260.138 256.167C261.37 256.168 262.586 255.889 263.694 255.352C264.803 254.816 265.775 254.035 266.539 253.069C267.302 252.102 267.837 250.976 268.102 249.773C268.368 248.571 268.358 247.323 268.073 246.125L266.655 240.165L249.028 240.166Z" fill="#FFD9AE"/>
<path d="M301.491 255.445C302.717 255.445 303.928 255.169 305.032 254.637C306.137 254.104 307.107 253.33 307.871 252.371C308.634 251.412 309.172 250.293 309.443 249.097C309.715 247.902 309.713 246.66 309.439 245.465L291.718 168.252C291.443 167.057 291.441 165.816 291.713 164.62C291.984 163.425 292.522 162.306 293.286 161.346C294.05 160.387 295.02 159.613 296.124 159.081C297.229 158.548 298.439 158.272 299.665 158.272H302.842L347.12 168.252L364.841 245.465C365.116 246.66 365.118 247.902 364.846 249.097C364.575 250.293 364.037 251.412 363.273 252.371C362.509 253.33 361.539 254.104 360.435 254.637C359.33 255.169 358.12 255.445 356.894 255.445H301.491Z" fill="#FCF3E9"/>
<path d="M355.068 158.274H358.245C360.013 158.274 361.734 158.849 363.148 159.913C364.561 160.976 365.59 162.471 366.08 164.17L369.777 176.997C370.267 178.696 371.296 180.191 372.709 181.254C374.123 182.317 375.843 182.893 377.612 182.892H322.209C320.44 182.893 318.719 182.317 317.306 181.254C315.893 180.191 314.864 178.696 314.374 176.997L310.677 164.17C310.187 162.47 309.158 160.976 307.744 159.912C306.331 158.849 304.61 158.274 302.841 158.274L355.068 158.274Z" fill="#FFD9AE"/>
<path d="M322.209 182.892H323.101C324.334 182.892 325.551 182.613 326.661 182.075C327.77 181.536 328.743 180.753 329.506 179.785C330.269 178.816 330.803 177.687 331.067 176.482C331.33 175.278 331.317 174.029 331.029 172.83L329.686 167.251H385.089L386.431 172.83C386.72 174.029 386.733 175.278 386.469 176.482C386.205 177.687 385.672 178.816 384.909 179.785C384.146 180.753 383.173 181.536 382.063 182.075C380.954 182.613 379.737 182.892 378.504 182.892H322.209Z" fill="#FCF3E9"/>
<path d="M343.667 195.431H304.822V197.29H343.667V195.431Z" fill="#FFD9AE"/>
<path d="M346.333 204.722H307.488V206.581H346.333V204.722Z" fill="#FFD9AE"/>
<path d="M349.059 214.097H310.214V215.956H349.059V214.097Z" fill="#FFD9AE"/>
<path d="M351.785 223.472H312.941V225.332H351.785V223.472Z" fill="#FFD9AE"/>
<path d="M354.511 232.848H315.666V234.707H354.511V232.848Z" fill="#FFD9AE"/>
<path d="M357.238 242.223H318.393V244.083H357.238V242.223Z" fill="#FFD9AE"/>
<path d="M287.501 212.694H268.328V214.554H287.501V212.694Z" fill="#FFD9AE"/>
<path d="M288.817 221.983H269.643V223.842H288.817V221.983Z" fill="#FFD9AE"/>
<path d="M290.162 231.359H270.989V233.218H290.162V231.359Z" fill="#FFD9AE"/>
<path d="M291.508 240.734H272.335V242.594H291.508V240.734Z" fill="#FFD9AE"/>
<path d="M27.4031 191.692C27.8135 194.343 28.0552 196.992 28.2362 199.64C28.3435 200.964 28.3881 202.287 28.4631 203.611L28.5945 207.579C28.6503 210.223 28.6113 212.868 28.4774 215.513C28.3286 218.158 28.1966 220.803 28.0813 223.448L27.4137 239.313C27.1372 244.602 26.906 249.89 26.5911 255.178L26.2811 255.173C26.1014 249.879 26.0053 244.587 25.864 239.294L25.6024 223.416C25.5511 220.771 25.4869 218.125 25.4096 215.477C25.3447 212.832 25.3734 210.187 25.4957 207.542L25.7282 203.575C25.8373 202.253 25.9142 200.932 26.0567 199.608C26.3047 196.965 26.6146 194.323 27.0932 191.684L27.4031 191.692Z" fill="#A9C0FF"/>
<path d="M41.803 192.228C42.0448 192.875 42.2474 193.525 42.4712 194.173L43.0762 196.123C43.4754 197.424 43.8387 198.726 44.1846 200.028C44.3166 202.67 44.5125 205.309 44.673 207.949L45.6878 223.79L46.7019 239.63L47.209 247.55C46.8135 250.227 46.436 252.902 45.8601 255.59C44.9464 252.997 44.2305 250.392 43.4971 247.788L42.9901 239.868L41.9759 224.027L40.9618 208.187C40.7845 205.547 40.642 202.905 40.4362 200.268C40.6128 198.931 40.8081 197.593 41.0368 196.253L41.3883 194.242C41.5278 193.571 41.6462 192.899 41.803 192.228Z" fill="#4D76B8"/>
<path d="M48.1863 183.619L40.8031 226.685L51.0112 228.435L58.3943 185.369L48.1863 183.619Z" fill="#A9C0FF"/>
<path d="M28.7619 184.517C29.0253 185.156 29.251 185.798 29.4971 186.439L30.1696 188.366C30.6135 189.651 31.0214 190.94 31.4094 192.231C31.6326 194.867 31.9196 197.5 32.1719 200.131L33.734 215.927L35.2961 231.722L36.0771 239.62C35.7746 242.309 35.4895 244.995 35.0072 247.701C34.0042 245.142 33.199 242.563 32.3758 239.986L31.5948 232.088L30.0326 216.292L28.4705 200.496C28.2021 197.864 27.9684 195.227 27.6709 192.6C27.8011 191.258 27.9486 189.914 28.1327 188.567L28.4148 186.545C28.5332 185.869 28.628 185.195 28.7619 184.517ZM38.5721 176.57C38.7631 177.234 38.9156 177.897 39.0891 178.561L39.5435 180.551C39.8417 181.877 40.1014 183.204 40.3493 184.53C40.2781 187.175 40.2712 189.82 40.2291 192.464L40.0264 208.333L39.8237 224.202L39.722 232.136C39.1226 234.775 38.5411 237.413 37.7607 240.049C37.0485 237.394 36.5346 234.741 36.0027 232.089L36.1044 224.154L36.3071 208.285L36.5098 192.416C36.5352 189.771 36.596 187.126 36.5929 184.482C36.8718 183.163 37.1675 181.844 37.4997 180.524L38.0043 178.546C38.1946 177.888 38.3645 177.229 38.5721 176.57Z" fill="#6299E8"/>
<path d="M33.951 192.23C34.3613 194.881 34.6031 197.53 34.7847 200.178C34.8919 201.502 34.9366 202.825 35.0116 204.149L35.143 208.117C35.1988 210.762 35.1597 213.406 35.0258 216.051C34.8771 218.696 34.745 221.341 34.6297 223.986L33.9621 239.852C33.6857 245.14 33.4544 250.428 33.1395 255.716L32.8296 255.711C32.6498 250.417 32.5537 245.125 32.413 239.832L32.1508 223.954C32.0996 221.309 32.0353 218.663 31.958 216.015C31.8932 213.37 31.9219 210.725 32.0442 208.08L32.2767 204.113C32.3858 202.791 32.4626 201.47 32.6052 200.146C32.8532 197.503 33.1631 194.861 33.6416 192.222L33.951 192.23Z" fill="#A9C0FF"/>
<path d="M59.707 191.69C59.7535 192.379 59.7628 193.06 59.792 193.745L59.8155 195.786C59.8273 197.146 59.8031 198.497 59.7628 199.846C59.1355 202.416 58.5696 205.001 57.9701 207.577L54.4213 223.048L50.8725 238.519L49.0977 246.254C47.9547 248.707 46.8296 251.163 45.5105 253.574C45.3747 250.828 45.4324 248.128 45.4721 245.422L47.2468 237.687L50.7956 222.216L54.3444 206.745C54.9277 204.164 55.5458 201.592 56.1006 199.005C56.6516 197.775 57.2163 196.547 57.8226 195.329L58.7332 193.502C59.0599 192.899 59.3642 192.29 59.707 191.69Z" fill="#6299E8"/>
<path d="M57.3186 256.168H26.9983C26.6847 256.168 26.3826 256.049 26.1532 255.835C25.9237 255.621 25.7838 255.329 25.7617 255.016L22.2178 211.215C22.2058 211.045 22.2289 210.875 22.2856 210.714C22.3423 210.554 22.4315 210.407 22.5475 210.282C22.6635 210.158 22.8039 210.059 22.9599 209.991C23.1159 209.923 23.2843 209.888 23.4545 209.888H60.8625C61.0327 209.888 61.201 209.923 61.357 209.991C61.5131 210.059 61.6535 210.158 61.7695 210.282C61.8855 210.407 61.9746 210.554 62.0313 210.714C62.0881 210.875 62.1111 211.045 62.0991 211.215L58.5553 255.016C58.5332 255.329 58.3933 255.621 58.1638 255.835C57.9343 256.049 57.6323 256.168 57.3186 256.168Z" fill="#DEF3F5"/>
<path d="M61.2896 222.632L61.8698 214.45H22.4453L23.0255 222.632H61.2896Z" fill="#FFD9AE"/>
<path d="M346.254 88.0084H310.697C310.204 88.0084 309.731 88.2043 309.382 88.553C309.033 88.9018 308.838 89.3748 308.838 89.868V125.424C308.838 125.918 309.033 126.391 309.382 126.739C309.731 127.088 310.204 127.284 310.697 127.284H333.596L336.476 131.57C336.532 131.654 336.609 131.723 336.699 131.771C336.788 131.819 336.888 131.844 336.99 131.844C337.092 131.844 337.192 131.819 337.282 131.771C337.371 131.723 337.448 131.654 337.505 131.57L340.385 127.284H346.251C346.744 127.284 347.217 127.088 347.566 126.739C347.915 126.391 348.111 125.918 348.111 125.424V89.868C348.111 89.3748 347.915 88.9018 347.566 88.553C347.217 88.2043 346.744 88.0084 346.251 88.0084H346.254Z" fill="white"/>
<path d="M334.839 100.392L318.357 105.5C318.051 105.58 317.78 105.758 317.584 106.005C317.387 106.252 317.276 106.556 317.266 106.872C317.257 107.187 317.349 107.498 317.53 107.757C317.711 108.015 317.971 108.209 318.27 108.308L325.746 110.813C325.774 110.823 325.799 110.839 325.82 110.86C325.842 110.88 325.859 110.905 325.87 110.932L328.621 118.071C328.733 118.357 328.93 118.602 329.185 118.773C329.441 118.945 329.742 119.034 330.05 119.028H330.088C330.401 119.028 330.706 118.929 330.959 118.745C331.212 118.561 331.401 118.302 331.498 118.004L336.74 102.259C336.823 102.008 336.835 101.738 336.775 101.48C336.716 101.222 336.587 100.985 336.403 100.794C336.206 100.587 335.956 100.439 335.679 100.368C335.402 100.297 335.111 100.305 334.839 100.391L334.839 100.392Z" fill="#A9C0FF"/>
<path d="M336.993 132.771C336.738 132.772 336.488 132.71 336.263 132.591C336.038 132.472 335.846 132.3 335.703 132.089L333.1 128.214H310.697C309.957 128.214 309.248 127.92 308.725 127.397C308.202 126.874 307.908 126.164 307.908 125.424V89.8674C307.908 89.1276 308.202 88.418 308.725 87.8949C309.248 87.3718 309.957 87.0779 310.697 87.0779H346.254C346.993 87.0779 347.703 87.3718 348.226 87.8949C348.749 88.418 349.043 89.1276 349.043 89.8674V125.424C349.043 126.164 348.749 126.873 348.226 127.396C347.703 127.919 346.993 128.213 346.254 128.213H340.882L338.279 132.088C338.137 132.299 337.946 132.472 337.722 132.591C337.497 132.711 337.247 132.773 336.993 132.773L336.993 132.771ZM310.697 88.9345C310.451 88.9345 310.214 89.0324 310.04 89.2068C309.865 89.3812 309.767 89.6177 309.767 89.8643V125.421C309.767 125.667 309.865 125.904 310.04 126.078C310.214 126.253 310.451 126.351 310.697 126.351H334.092L336.99 130.665L339.889 126.351H346.254C346.5 126.351 346.737 126.253 346.911 126.078C347.085 125.904 347.183 125.667 347.183 125.421V89.8674C347.183 89.6208 347.085 89.3843 346.911 89.2099C346.737 89.0355 346.5 88.9376 346.254 88.9376L310.697 88.9345Z" fill="#4D76B8"/>
</svg>
