<?xml version="1.0" encoding="UTF-8"?>
<svg id="Layer_2" data-name="Layer 2" xmlns="http://www.w3.org/2000/svg" viewBox="0 0 199.26 217.2">
  <defs>
    <style>
      .cls-1 {
        fill: #00868f;
      }

      .cls-2 {
        fill: #f68f1e;
      }
    </style>
  </defs>
  <g id="Layer_1-2" data-name="Layer 1">
    <g>
      <path class="cls-1" d="M199.26,115.8c-.12,48.65-32.77,88.95-79.12,99.19-50.35,11.13-103.38-20.98-116.32-70.93-10.14-39.17,.08-72.83,29.14-100.82,5.61-5.4,14.01-5.42,19.51-.31,5.79,5.39,6.42,13.68,.93,19.69-6.53,7.15-13.12,14.13-17.49,22.97-23.39,47.32,10.86,103.12,63.65,102.85,27.83-.15,49.29-12.94,62.57-37.39,12.95-23.84,11.88-48.11-2.18-71.36-3.52-5.83-8.48-10.84-13.11-15.92-5.68-6.24-6-14.74-.35-20.44,5.6-5.66,14.28-5.4,20.41,.38,17.97,16.94,28.67,37.61,31.88,62.09,.5,3.82,.38,7.72,.48,10.01Z"/>
      <path class="cls-1" d="M95.71,123.97c-5.75,6.12-10.75,11.22-15.47,16.57-1.98,2.24-3.67,4.85-5.02,7.53-3.42,6.8-2.84,14.99,1.17,19.06,4.2,4.27,9.34,5.77,15.12,4.34,6.46-1.6,9.2-6.67,10.52-12.57,2.73-12.25-5.09-22.42-6.32-34.94Zm-11.87,39.61c-.08,1.13-1.22,2.95-2.11,3.11-2.22,.39-5.33-4.48-5.41-9.03,.39-.37,1.24-1.86,2.28-2,2.3-.33,5.49,4.43,5.24,7.92Z"/>
      <path class="cls-2" d="M60.78,78.37c.93,.58,1.23,.88,1.59,.97,5.86,1.53,8.29,5.75,10,11.28,3.43,11.08,7.53,21.95,11.3,32.93,.35,1.03,.33,2.2,.48,3.3,.41-.04,.81-.09,1.22-.13,4.68-9.73,9.36-19.47,14.19-29.52,10.8,5.19,21.25,10.22,31.71,15.25l.34-.7c-10.44-5.02-20.88-10.04-31.67-15.23,.61-1.27,1.04-2.15,1.46-3.04,10.76-22.39,21.37-44.85,32.4-67.11,2.85-5.76,6.71-11.11,10.68-16.2,1.96-2.51,5.23-4,8.15-6.12-2.35-.87-4.86-2.07-7.5-2.72-14.19-3.48-26.54-.06-36.98,10.19-6.32,6.22-10.82,13.68-14.66,21.59-6.01,12.36-11.95,24.76-18.09,37.05-3.33,6.67-6.51,8.37-14.62,8.23Z"/>
    </g>
  </g>
</svg>