<svg xmlns="http://www.w3.org/2000/svg" width="56.125" height="46.91" viewBox="0 0 56.125 46.91">
  <path id="cloud-computing" d="M53.5,31.745a6.534,6.534,0,0,0,6.621-6.4,7.1,7.1,0,0,0-.084-1.108,3.855,3.855,0,0,1,0-1.136c.393-2.609-.6-4.868-3.255-7.337a6.453,6.453,0,0,0-3.156-1.655,8.343,8.343,0,0,0-2.89-.042,3.561,3.561,0,0,1-3.03-1.108,7.982,7.982,0,0,0-5.653-2.329A8.834,8.834,0,0,0,41,10.7a3.887,3.887,0,0,1-3.3-1.066A7.838,7.838,0,0,0,32.06,7.28a7.937,7.937,0,0,0-5.653,2.343,3.93,3.93,0,0,1-3.3,1.066A8.1,8.1,0,0,0,16.4,12.961a3.588,3.588,0,0,1-3.03,1.108,8.343,8.343,0,0,0-2.89.042,6.336,6.336,0,0,0-3.156,1.655C4.677,18.236,3.681,20.509,4.074,23.1a3.855,3.855,0,0,1,0,1.136A7.5,7.5,0,0,0,4,25.418a6.522,6.522,0,0,0,6.621,6.327H17.33v7.014H12.869a4.208,4.208,0,1,0,0,2.806h5.864a1.407,1.407,0,0,0,1.4-1.4V31.745h4.91V46.026a4.208,4.208,0,1,0,2.806,0V31.745h8.417V46.026a4.208,4.208,0,1,0,2.806,0V31.745h4.91v8.417a1.407,1.407,0,0,0,1.4,1.4h5.864a4.208,4.208,0,1,0,0-2.806H46.79V31.745H53.5ZM8.913,41.565a1.4,1.4,0,1,1,1.4-1.4A1.407,1.407,0,0,1,8.913,41.565Zm46.293-2.806a1.4,1.4,0,1,1-1.4,1.4A1.407,1.407,0,0,1,55.206,38.759ZM26.449,51.385a1.4,1.4,0,1,1,1.4-1.4A1.407,1.407,0,0,1,26.449,51.385Zm11.223,0a1.4,1.4,0,1,1,1.4-1.4A1.407,1.407,0,0,1,37.671,51.385ZM10.625,28.94a3.714,3.714,0,0,1-3.816-3.591,5.026,5.026,0,0,1,.056-.673,6.771,6.771,0,0,0,0-1.992c-.182-1.192-.014-2.609,2.4-4.868a3.632,3.632,0,0,1,1.754-.954,5.342,5.342,0,0,1,1.052-.1,6.058,6.058,0,0,1,.87.07,6.352,6.352,0,0,0,5.457-1.88,5.245,5.245,0,0,1,4.363-1.473A6.754,6.754,0,0,0,28.4,11.629a5.322,5.322,0,0,1,7.351,0,6.653,6.653,0,0,0,5.639,1.852,5.29,5.29,0,0,1,4.363,1.473,6.311,6.311,0,0,0,5.457,1.88,5.542,5.542,0,0,1,1.922.028,3.572,3.572,0,0,1,1.754.954h0c2.413,2.259,2.581,3.675,2.4,4.868a6.414,6.414,0,0,0,0,2.006,5.517,5.517,0,0,1,.056.729,3.716,3.716,0,0,1-3.816,3.549h-42.9Z" transform="translate(-3.991 -7.28)" fill="#fff"/>
</svg>
