<svg width="512" height="512" viewBox="0 0 512 512" fill="none" xmlns="http://www.w3.org/2000/svg">
<path d="M408.248 295.758H441.109C423.262 391.116 333.012 449.6 255.634 449.6C199.823 449.6 140.634 419.588 104.842 373.143C103.702 371.692 102.035 370.75 100.204 370.521C98.3734 370.292 96.5262 370.796 95.0646 371.922C93.603 373.049 92.6452 374.706 92.3996 376.535C92.154 378.364 92.6403 380.216 93.7529 381.688C113.591 407.198 138.954 427.88 167.934 442.179C196.212 456.193 226.534 463.6 255.634 463.6C300.118 463.6 346.934 446.237 384.085 415.961C422.166 384.926 447.197 342.552 455.338 295.761H494.351L451.3 233.367L408.248 295.758ZM70.8909 216.242C88.7379 120.884 178.988 62.3999 256.366 62.3999C312.177 62.3999 371.366 92.4119 407.158 138.857C408.298 140.308 409.965 141.25 411.796 141.479C413.626 141.707 415.474 141.204 416.935 140.077C418.397 138.951 419.355 137.293 419.6 135.465C419.846 133.636 419.36 131.784 418.247 130.312C398.408 104.802 373.046 84.1202 344.066 69.8209C315.79 55.8079 285.466 48.3999 256.366 48.3999C211.882 48.3999 165.066 65.7629 127.915 96.0389C89.8339 127.074 64.8029 169.448 56.6619 216.239H17.6479L60.7 278.633L103.752 216.242H70.8909Z" fill="black"/>
<path d="M332.186 259.225C332.178 246.773 329.125 234.513 323.292 223.512C317.459 212.511 309.023 203.104 298.721 196.111C288.418 189.118 276.561 184.751 264.184 183.391C251.807 182.032 239.285 183.72 227.71 188.31C216.135 192.899 205.859 200.251 197.777 209.723C189.694 219.195 184.052 230.5 181.341 242.653C178.63 254.806 178.933 267.438 182.224 279.447C185.515 291.456 191.693 302.477 200.22 311.551C209.566 321.407 214.721 334.506 214.6 348.088H213.782C211.925 348.088 210.145 348.826 208.832 350.138C207.519 351.451 206.782 353.232 206.782 355.088C206.782 356.945 207.519 358.725 208.832 360.038C210.145 361.351 211.925 362.088 213.782 362.088H298.212C300.068 362.088 301.849 361.351 303.162 360.038C304.474 358.725 305.212 356.945 305.212 355.088C305.212 353.232 304.474 351.451 303.162 350.138C301.849 348.826 300.068 348.088 298.212 348.088H296.503C296.23 334.688 301.252 322.246 311.253 311.777C324.64 297.547 332.122 278.763 332.186 259.225ZM230.2 377.4C228.343 377.4 226.563 378.138 225.25 379.45C223.937 380.763 223.2 382.544 223.2 384.4C223.2 386.257 223.937 388.037 225.25 389.35C226.563 390.663 228.343 391.4 230.2 391.4H281.8C283.656 391.4 285.437 390.663 286.75 389.35C288.062 388.037 288.8 386.257 288.8 384.4C288.8 382.544 288.062 380.763 286.75 379.45C285.437 378.138 283.656 377.4 281.8 377.4H230.2ZM261.241 156.326V127.6C261.241 125.744 260.503 123.963 259.191 122.65C257.878 121.338 256.097 120.6 254.241 120.6C252.384 120.6 250.604 121.338 249.291 122.65C247.978 123.963 247.241 125.744 247.241 127.6V156.33C247.241 158.187 247.978 159.967 249.291 161.28C250.604 162.593 252.384 163.33 254.241 163.33C256.097 163.33 257.878 162.593 259.191 161.28C260.503 159.967 261.241 158.187 261.241 156.33V156.326ZM351.089 162.366C349.814 161.017 348.055 160.229 346.2 160.176C344.344 160.123 342.544 160.809 341.194 162.084L320.087 182.019C318.737 183.294 317.948 185.053 317.895 186.909C317.842 188.765 318.528 190.566 319.803 191.916C321.078 193.266 322.837 194.055 324.693 194.108C326.549 194.161 328.35 193.475 329.7 192.2L350.807 172.265C351.476 171.634 352.014 170.877 352.39 170.038C352.766 169.198 352.973 168.293 352.999 167.374C353.025 166.455 352.87 165.539 352.542 164.68C352.215 163.821 351.721 163.034 351.089 162.366ZM191.142 189.454C191.797 188.809 192.318 188.041 192.676 187.194C193.034 186.347 193.221 185.438 193.228 184.519C193.235 183.599 193.06 182.688 192.714 181.836C192.369 180.984 191.858 180.209 191.213 179.554L170.985 159.033C169.678 157.726 167.908 156.989 166.06 156.982C164.212 156.975 162.436 157.699 161.12 158.997C159.804 160.294 159.054 162.059 159.035 163.907C159.015 165.755 159.727 167.536 161.015 168.861L181.243 189.382C181.888 190.037 182.656 190.558 183.503 190.916C184.35 191.274 185.259 191.462 186.178 191.468C187.098 191.475 188.009 191.3 188.861 190.954C189.713 190.609 190.488 190.099 191.143 189.453L191.142 189.454Z" fill="black"/>
</svg>
