<svg width="22" height="20" viewBox="0 0 22 20" fill="none" xmlns="http://www.w3.org/2000/svg">
<path d="M4.34485 14.8273C4.22748 14.8272 4.11083 14.8102 3.99912 14.7766C3.80117 14.718 3.62486 14.6089 3.49028 14.4616C3.3557 14.3143 3.26824 14.1347 3.23787 13.9434L2.87718 11.7548C2.13588 11.2587 1.50772 10.6306 1.02912 9.90689C0.550525 9.18313 0.231009 8.37812 0.089103 7.53853C-0.180152 5.98398 0.165556 4.39126 1.06205 3.05605C1.95855 1.72083 3.34494 0.733799 4.96387 0.278183C6.5828 -0.177434 8.32431 -0.0706909 9.86511 0.578597C11.4059 1.22789 12.6414 2.37561 13.3421 3.80873C13.3667 3.8592 13.3804 3.91369 13.3824 3.96909C13.3844 4.02448 13.3746 4.0797 13.3537 4.13159C13.3328 4.18348 13.301 4.23102 13.2604 4.27149C13.2197 4.31197 13.1709 4.3446 13.1167 4.36751C13.0625 4.39042 13.0039 4.40316 12.9444 4.40501C12.8849 4.40686 12.8256 4.39778 12.7699 4.37829C12.6574 4.33893 12.5662 4.25955 12.5165 4.15762C11.907 2.90993 10.8318 1.9106 9.4906 1.34527C8.14943 0.779945 6.63346 0.687036 5.22426 1.0838C3.81506 1.48057 2.60844 2.34005 1.8285 3.50259C1.04856 4.66513 0.748331 6.05172 0.983572 7.4048C1.11193 8.16206 1.40615 8.88666 1.84798 9.53359C2.2898 10.1805 2.86978 10.7359 3.55188 11.1654C3.60298 11.198 3.64636 11.24 3.67932 11.2889C3.71229 11.3377 3.73415 11.3923 3.74356 11.4493L4.13324 13.816C4.13854 13.8523 4.15488 13.8864 4.18033 13.9143C4.20579 13.9422 4.2393 13.9627 4.27688 13.9734C4.31447 13.9858 4.35514 13.9876 4.39382 13.9786C4.4325 13.9696 4.46748 13.9502 4.49438 13.9228L6.1714 12.3319C6.21282 12.2914 6.26247 12.259 6.31747 12.2365C6.37246 12.2141 6.4317 12.202 6.49174 12.2011C6.55178 12.2001 6.61143 12.2103 6.66721 12.231C6.72299 12.2517 6.7738 12.2825 6.81668 12.3216C6.85956 12.3608 6.89366 12.4075 6.91699 12.459C6.94032 12.5105 6.95242 12.5658 6.95258 12.6217C6.95275 12.6776 6.94098 12.733 6.91795 12.7846C6.89493 12.8363 6.86111 12.8831 6.81846 12.9225L5.1419 14.513C5.03832 14.6124 4.91437 14.6914 4.77738 14.7454C4.64039 14.7994 4.49361 14.8272 4.34485 14.8273Z" fill="white"/>
<path d="M18.6174 19.4019C18.3786 19.4015 18.1462 19.3298 17.9545 19.1973L16.1211 17.9384C14.4774 18.2439 12.7705 17.9896 11.3111 17.2218C9.85184 16.454 8.73719 15.2239 8.17014 13.7553C7.60308 12.2868 7.62134 10.6774 8.22157 9.22035C8.82181 7.76326 9.96411 6.55531 11.4405 5.81642C12.9169 5.07753 14.6292 4.85684 16.2657 5.19453C17.9021 5.53222 19.3539 6.40583 20.3568 7.65631C21.3596 8.9068 21.8467 10.451 21.7295 12.0077C21.6122 13.5645 20.8985 15.0303 19.718 16.1383L19.7366 18.351C19.7375 18.4885 19.7092 18.6248 19.6534 18.752C19.5976 18.8793 19.5153 18.9951 19.4114 19.0927C19.3074 19.1903 19.1837 19.2678 19.0474 19.3208C18.9112 19.3738 18.7651 19.4016 18.6174 19.4019ZM16.2258 17.0643C16.3227 17.0643 16.417 17.0931 16.495 17.1466L18.4923 18.5185C18.524 18.5403 18.5616 18.5534 18.6008 18.5564C18.6401 18.5595 18.6795 18.5522 18.7146 18.5356C18.7497 18.519 18.7791 18.4935 18.7995 18.4622C18.82 18.4309 18.8307 18.3949 18.8304 18.3582L18.8104 15.9657C18.8099 15.9081 18.8221 15.8509 18.8463 15.7978C18.8704 15.7447 18.9061 15.6967 18.9509 15.6569C19.5497 15.1309 20.0264 14.4962 20.3514 13.7921C20.6765 13.0879 20.8431 12.3291 20.8409 11.5626C20.8453 10.3828 20.4551 9.23098 19.7244 8.26706C18.9937 7.30314 17.9588 6.57496 16.7633 6.18364C15.5678 5.79232 14.2711 5.75727 13.0533 6.08336C11.8354 6.40944 10.7568 7.08049 9.96728 8.00331C9.17773 8.92614 8.7164 10.055 8.64733 11.233C8.57826 12.4111 8.90489 13.5799 9.58187 14.5773C10.2588 15.5746 11.2526 16.351 12.4251 16.7986C13.5975 17.2461 14.8906 17.3427 16.1248 17.0748C16.1579 17.0676 16.1918 17.0644 16.2258 17.0643ZM6.79401 7.28355C6.67383 7.28355 6.55858 7.2391 6.4736 7.15998C6.38862 7.08087 6.34088 6.97356 6.34088 6.86167C6.34367 6.65223 6.40759 6.44745 6.5258 6.26924C6.64402 6.09103 6.81207 5.94612 7.01196 5.85002C7.08206 5.81421 7.14073 5.76177 7.18202 5.69803C7.22332 5.63429 7.24576 5.56151 7.24707 5.48708C7.24838 5.41265 7.22852 5.33922 7.1895 5.27425C7.15048 5.20928 7.09368 5.15508 7.02489 5.11715C6.95609 5.07922 6.87774 5.05891 6.79779 5.05829C6.71784 5.05767 6.63914 5.07675 6.56967 5.11361C6.5002 5.15046 6.44245 5.20377 6.40226 5.26813C6.36208 5.33248 6.3409 5.40559 6.34088 5.48003C6.34088 5.59192 6.29314 5.69923 6.20816 5.77834C6.12319 5.85746 6.00793 5.90191 5.88776 5.90191C5.76758 5.90191 5.65233 5.85746 5.56735 5.77834C5.48237 5.69923 5.43463 5.59192 5.43463 5.48003C5.43471 5.2568 5.49821 5.03756 5.61869 4.84455C5.73916 4.65154 5.91232 4.49163 6.1206 4.38105C6.32889 4.27046 6.56488 4.21314 6.80464 4.21488C7.0444 4.21663 7.2794 4.27739 7.4858 4.39099C7.6922 4.50459 7.86265 4.667 7.97987 4.86174C8.09708 5.05648 8.15689 5.27662 8.15322 5.49983C8.14955 5.72304 8.08254 5.94137 7.95898 6.13268C7.83542 6.32399 7.65971 6.48147 7.44968 6.58914C7.39278 6.6135 7.34396 6.65164 7.30833 6.69959C7.2727 6.74753 7.25156 6.80351 7.24713 6.86167C7.24713 6.97356 7.19939 7.08087 7.11441 7.15998C7.02944 7.2391 6.91418 7.28355 6.79401 7.28355ZM6.79401 8.49222C6.67434 8.49069 6.56004 8.44575 6.47541 8.36696C6.39079 8.28818 6.34252 8.18176 6.34088 8.07034C6.34201 8.01389 6.3543 7.95812 6.37713 7.90581C6.39914 7.85549 6.43146 7.80963 6.47229 7.77081C6.51658 7.73275 6.56704 7.70142 6.62182 7.678C6.73214 7.6358 6.85588 7.6358 6.96619 7.678C7.02093 7.70149 7.07138 7.73281 7.11572 7.77081C7.15649 7.80968 7.1888 7.85552 7.21088 7.90581C7.2359 7.95748 7.24828 8.01368 7.24713 8.07034C7.24868 8.12568 7.23626 8.18059 7.21088 8.23066C7.18883 8.28096 7.15651 8.3268 7.11572 8.36566C7.03001 8.44487 6.91476 8.49021 6.79401 8.49222Z" fill="white"/>
<path d="M15.6304 13.289C15.5297 13.2891 15.432 13.2579 15.3524 13.2005C15.2729 13.1431 15.2162 13.0627 15.1912 12.9719C15.1662 12.8811 15.1744 12.7852 15.2145 12.6993C15.2545 12.6133 15.3242 12.5422 15.4124 12.4972C15.6761 12.364 15.8852 12.1536 16.0072 11.8985C16.1293 11.6434 16.1575 11.3579 16.0875 11.0863C16.0174 10.8148 15.8531 10.5724 15.6199 10.3967C15.3868 10.221 15.0978 10.1219 14.798 10.1147C14.4981 10.1075 14.2041 10.1927 13.9616 10.357C13.719 10.5214 13.5415 10.7556 13.4566 11.0235C13.3717 11.2913 13.3842 11.5778 13.492 11.8384C13.5998 12.099 13.7971 12.3191 14.0531 12.4647C14.1535 12.5238 14.225 12.6173 14.2521 12.7251C14.2792 12.8328 14.2597 12.9462 14.1979 13.0407C14.1361 13.1352 14.0369 13.2033 13.9216 13.2304C13.8064 13.2574 13.6843 13.2412 13.5818 13.1853C13.157 12.9433 12.8298 12.5776 12.6509 12.145C12.472 11.7123 12.4514 11.2367 12.5923 10.792C12.7332 10.3474 13.0277 9.95835 13.4302 9.68532C13.8326 9.41229 14.3206 9.27049 14.8184 9.28189C15.3163 9.29329 15.7961 9.45726 16.1837 9.74838C16.5713 10.0395 16.8449 10.4415 16.9621 10.8921C17.0793 11.3427 17.0336 11.8167 16.8321 12.2407C16.6306 12.6647 16.2845 13.0149 15.8474 13.2372C15.7809 13.2712 15.7063 13.289 15.6304 13.289Z" fill="white"/>
<path d="M14.846 14.5505H14.6014C14.2734 14.5502 13.9589 14.4287 13.727 14.2128C13.4951 13.9969 13.3647 13.7041 13.3643 13.3988V12.825C13.3643 12.7131 13.4121 12.6058 13.497 12.5267C13.582 12.4476 13.6973 12.4032 13.8174 12.4032C13.9376 12.4032 14.0529 12.4476 14.1379 12.5267C14.2228 12.6058 14.2706 12.7131 14.2706 12.825V13.3988C14.2717 13.4801 14.307 13.5578 14.3688 13.6153C14.4305 13.6729 14.514 13.7057 14.6014 13.7067H14.846C14.9334 13.7057 15.0169 13.6729 15.0786 13.6153C15.1404 13.5578 15.1757 13.4801 15.1768 13.3988V12.8672C15.1768 12.7553 15.2246 12.648 15.3095 12.5689C15.3945 12.4898 15.5098 12.4453 15.6299 12.4453C15.7501 12.4453 15.8654 12.4898 15.9504 12.5689C16.0353 12.648 16.0831 12.7553 16.0831 12.8672V13.3988C16.0827 13.7041 15.9523 13.9969 15.7204 14.2128C15.4884 14.4287 15.174 14.5502 14.846 14.5505ZM14.7599 8.85518C14.6703 8.85483 14.5828 8.82975 14.5085 8.78311C14.4342 8.73646 14.3764 8.67035 14.3425 8.59314C14.3085 8.51592 14.3 8.43106 14.3178 8.3493C14.3356 8.26753 14.3791 8.19253 14.4428 8.13378C14.4844 8.0957 14.5337 8.0656 14.5878 8.04518C14.6981 8.00317 14.8218 8.00317 14.9321 8.04518C14.9881 8.0646 15.0391 8.09479 15.0817 8.13378C15.1231 8.17464 15.1568 8.22171 15.1814 8.27299C15.2235 8.37627 15.2235 8.49034 15.1814 8.59362C15.1567 8.6449 15.123 8.69196 15.0817 8.73284C15.039 8.77177 14.9881 8.80194 14.9321 8.82143C14.8777 8.84305 14.8192 8.85452 14.7599 8.85518ZM12.517 9.72003C12.3985 9.71779 12.2853 9.67411 12.1998 9.59768C12.1348 9.53966 12.0904 9.46451 12.0725 9.38231C12.0547 9.30011 12.0643 9.2148 12.1001 9.13784C12.1219 9.08517 12.156 9.03763 12.1998 8.99862C12.2415 8.96059 12.2907 8.93049 12.3448 8.91003C12.4275 8.87871 12.5182 8.87041 12.6059 8.88613C12.6935 8.90186 12.7744 8.94093 12.8387 8.99862C12.9232 9.07842 12.9705 9.18608 12.9701 9.29815C12.9716 9.32654 12.9685 9.35497 12.961 9.38253C12.9555 9.40831 12.9479 9.43369 12.9384 9.45846C12.925 9.48462 12.9098 9.50999 12.8931 9.5344C12.8777 9.55743 12.8595 9.57868 12.8387 9.59768L12.7707 9.64831C12.746 9.66508 12.7184 9.67791 12.6892 9.68628C12.6635 9.69855 12.636 9.70708 12.6076 9.71159C12.5777 9.71654 12.5474 9.71936 12.517 9.72003ZM11.5881 11.8083C11.5286 11.8098 11.4697 11.7982 11.4159 11.7746C11.361 11.7531 11.3105 11.7231 11.2664 11.686C11.1837 11.605 11.1368 11.4981 11.1349 11.3864C11.1357 11.3313 11.148 11.2768 11.1712 11.2261C11.1917 11.1738 11.2242 11.1263 11.2664 11.087C11.3087 11.0476 11.3597 11.0174 11.4159 10.9983C11.4986 10.967 11.5893 10.9587 11.6769 10.9744C11.7646 10.9901 11.8455 11.0292 11.9098 11.0869C11.9497 11.1289 11.9832 11.1757 12.0095 11.2261C12.0314 11.2771 12.0421 11.3316 12.0412 11.3864C12.0415 11.4985 11.9943 11.6062 11.9098 11.686L11.8418 11.7366C11.8171 11.7534 11.7895 11.7662 11.7603 11.7746C11.7345 11.7867 11.7071 11.7952 11.6787 11.7999C11.6487 11.8047 11.6185 11.8075 11.5881 11.8083ZM17.9318 11.8083C17.8722 11.8089 17.813 11.7983 17.7577 11.7773C17.7025 11.7563 17.6523 11.7253 17.6101 11.686C17.5679 11.6467 17.5345 11.6 17.512 11.5485C17.4894 11.4971 17.4781 11.442 17.4787 11.3864C17.4794 11.3313 17.4917 11.2768 17.5149 11.2261C17.538 11.175 17.5702 11.128 17.6101 11.0869C17.6977 11.0116 17.8126 10.9698 17.9318 10.9698C18.0511 10.9698 18.1659 11.0116 18.2535 11.0869C18.2934 11.1289 18.3269 11.1757 18.3532 11.2261C18.3751 11.2771 18.3859 11.3316 18.3849 11.3864C18.3853 11.4985 18.3381 11.6062 18.2535 11.686C18.1671 11.7636 18.0519 11.8073 17.9318 11.8083ZM17.0029 9.72003C16.883 9.71843 16.7681 9.67474 16.6812 9.59768L16.6268 9.5344C16.6097 9.51089 16.5959 9.48535 16.586 9.45846C16.5729 9.43456 16.5638 9.40896 16.5589 9.38253C16.5537 9.35464 16.5506 9.32644 16.5498 9.29815C16.5505 9.24302 16.5628 9.18856 16.586 9.13784C16.609 9.08673 16.6412 9.03965 16.6812 8.99862C16.7688 8.92334 16.8837 8.88154 17.0029 8.88154C17.1221 8.88154 17.237 8.92334 17.3246 8.99862C17.3659 9.03956 17.3996 9.08661 17.4243 9.13784C17.4461 9.18882 17.4569 9.24329 17.456 9.29815C17.4564 9.41023 17.4092 9.51791 17.3246 9.59768L17.2567 9.64831C17.233 9.66421 17.2071 9.67699 17.1796 9.68628C17.1522 9.698 17.1233 9.70651 17.0935 9.71159C17.0636 9.71652 17.0333 9.71934 17.0029 9.72003Z" fill="white"/>
</svg>
