<svg xmlns="http://www.w3.org/2000/svg" width="75.375" height="74.93" viewBox="0 0 75.375 74.93">
  <g id="dep_oyment_process" data-name="dep;oyment process" transform="translate(-1109.45 -5629.722)">
    <path id="Path_21927" data-name="Path 21927" d="M30.26,10.995c3.413-26.869,30.26,1.884,30.26,18.6A30.26,30.26,0,0,1,0,29.591C0,12.878,26.847,37.863,30.26,10.995Z" transform="matrix(0.956, -0.292, 0.292, 0.956, 1109.45, 5647.417)" fill="#fae1c5"/>
    <g id="Group_17197" data-name="Group 17197" transform="translate(1123.302 5641.158)">
      <path id="Path_7172" data-name="Path 7172" d="M9.967,7.415a3.708,3.708,0,1,0-3.7-3.7,3.717,3.717,0,0,0,3.7,3.7Zm28.944,0a3.708,3.708,0,1,0-3.7-3.7,3.711,3.711,0,0,0,3.7,3.7Zm-26.918.643h-.414a.7.7,0,0,0-.621.37l-.991,1.819L8.984,8.428a.715.715,0,0,0-.621-.37H7.941A4.935,4.935,0,0,0,3.01,12.99v2.795a.705.705,0,0,0,.71.71H16.214a.71.71,0,0,0,.71-.71V12.99A4.939,4.939,0,0,0,11.993,8.058Zm28.944,0h-.414a.687.687,0,0,0-.614.37l-.991,1.819-.991-1.819a.7.7,0,0,0-.621-.37H36.9a4.936,4.936,0,0,0-4.939,4.931v2.795a.71.71,0,0,0,.71.71h12.5a.71.71,0,0,0,.71-.71V12.99a4.957,4.957,0,0,0-4.946-4.931Zm0,30.822h-.414a.687.687,0,0,0-.614.37l-.991,1.819-.991-1.819a.7.7,0,0,0-.621-.37H36.9a4.936,4.936,0,0,0-4.939,4.931v2.795a.71.71,0,0,0,.71.71h12.5a.71.71,0,0,0,.71-.71V43.811a4.952,4.952,0,0,0-4.946-4.931Zm-28.944,0h-.414a.7.7,0,0,0-.621.37l-.991,1.819L8.984,39.25a.715.715,0,0,0-.621-.37H7.941A4.935,4.935,0,0,0,3.01,43.811v2.795a.705.705,0,0,0,.71.71H16.214a.71.71,0,0,0,.71-.71V43.811A4.935,4.935,0,0,0,11.993,38.88Zm23.214-4.347a3.7,3.7,0,1,0,3.7-3.7A3.711,3.711,0,0,0,35.207,34.533Zm-28.944,0a3.708,3.708,0,1,0,3.7-3.7A3.711,3.711,0,0,0,6.263,34.533ZM18.395,5.072l.022.037L19.77,6.365a.9.9,0,0,0,.628.244.917.917,0,0,0,.673-.3.873.873,0,0,0,.244-.658.818.818,0,0,0-.052-.274h6.358a.894.894,0,0,0-.052.274.921.921,0,0,0,1.545.71l1.338-1.242a.783.783,0,0,0,.155-.214l.037-.059.007-.022a.73.73,0,0,0,.059-.274.353.353,0,0,0,.007-.155.982.982,0,0,0-.067-.3l-.022-.044-.015-.022a.542.542,0,0,0-.133-.185l-.022-.037L29.107,2.558a.929.929,0,0,0-.628-.244.917.917,0,0,0-.673.3.879.879,0,0,0-.244.665,1.179,1.179,0,0,0,.052.281H21.256a.9.9,0,0,0,.052-.281.964.964,0,0,0-.244-.665.922.922,0,0,0-1.3-.052L18.425,3.807a.772.772,0,0,0-.118.163.882.882,0,0,0-.163.5.961.961,0,0,0,.192.54C18.358,5.027,18.38,5.072,18.395,5.072ZM8.732,26.785a.935.935,0,0,0-.673.288.922.922,0,0,0,.037,1.3l1.235,1.161a.939.939,0,0,0,.17.118.73.73,0,0,0,.111.067.945.945,0,0,0,.347.074.84.84,0,0,0,.347-.074l.118-.067.022-.015a.709.709,0,0,0,.148-.1l1.235-1.161a.922.922,0,0,0-.636-1.59.772.772,0,0,0-.311.059v-5.36a.934.934,0,0,0,.983-.237.922.922,0,0,0-.037-1.3L10.6,18.793a1.284,1.284,0,0,0-.207-.14l-.044-.03-.022-.007a.946.946,0,0,0-.355-.067.936.936,0,0,0-.347.067,1.076,1.076,0,0,0-.118.067.636.636,0,0,0-.163.111L8.1,19.939a.922.922,0,0,0,.636,1.59.772.772,0,0,0,.311-.059v5.36a1.5,1.5,0,0,0-.318-.044Zm28.944,0a.935.935,0,0,0-.673.288.922.922,0,0,0,.037,1.3l1.235,1.168a.967.967,0,0,0,.17.111.56.56,0,0,0,.118.067.945.945,0,0,0,.347.074.84.84,0,0,0,.347-.074l.118-.067.022-.015a.709.709,0,0,0,.148-.1l1.235-1.161a.922.922,0,0,0-.636-1.59.772.772,0,0,0-.311.059v-5.36a.934.934,0,0,0,.983-.237.922.922,0,0,0-.037-1.3l-1.235-1.161a.888.888,0,0,0-.214-.14l-.044-.03-.022-.007a.946.946,0,0,0-.355-.067.937.937,0,0,0-.347.067l-.1.059-.022.015a.565.565,0,0,0-.155.1l-1.235,1.161a.922.922,0,0,0,.636,1.59.772.772,0,0,0,.311-.059v5.36a.931.931,0,0,0-.318-.059ZM30.66,42.991l-.03-.052-.015-.022a.663.663,0,0,0-.126-.185l-.022-.037-1.353-1.257a.929.929,0,0,0-.628-.244.89.89,0,0,0-.673.3.873.873,0,0,0-.244.658,1.179,1.179,0,0,0,.052.281H21.263a.923.923,0,0,0-1.493-.991l-1.338,1.249a.943.943,0,0,0-.118.155.911.911,0,0,0-.17.5.961.961,0,0,0,.192.54.318.318,0,0,0,.059.081l.022.037L19.77,45.26a.9.9,0,0,0,.628.244.917.917,0,0,0,.673-.3.879.879,0,0,0,.244-.665.818.818,0,0,0-.052-.274h6.358a.894.894,0,0,0-.052.274.964.964,0,0,0,.244.665.942.942,0,0,0,.673.3.929.929,0,0,0,.628-.244l1.338-1.249a.783.783,0,0,0,.155-.214l.037-.059.007-.022a.73.73,0,0,0,.059-.274.3.3,0,0,0,0-.155.643.643,0,0,0-.052-.3ZM26.084,24.922l.2-.259v-.007a5.5,5.5,0,0,0,.865-2.514l.052-.436-.436-.022a6.813,6.813,0,0,1-3.519-1.538l-.266-.207-1.3,1.161v.185a5.861,5.861,0,0,0,1.02,3.5l.311-.266-.251.333a2.175,2.175,0,0,0,1.686.821,2.148,2.148,0,0,0,1.626-.761h.015Z" transform="translate(-3.01 0)"/>
      <path id="Path_7173" data-name="Path 7173" d="M33.085,31.349h0a13.363,13.363,0,0,1,1.56.384l.532.163V26.034a4.833,4.833,0,0,0-1.442-3.475,4.919,4.919,0,0,0-8.406,3.475V31.9l.532-.163c.444-.14.924-.259,1.479-.377a.591.591,0,0,0,.177-.03l.311-.126v-.451l-.074-.111a6.649,6.649,0,0,1-1.087-3.926,3.092,3.092,0,0,1,.015-.362.375.375,0,0,1,.126-.244l1.708-1.523a.406.406,0,0,1,.274-.1.467.467,0,0,1,.288.111,6.415,6.415,0,0,0,3.689,1.782,2.356,2.356,0,0,0,.569-.067.36.36,0,0,1,.089-.007.422.422,0,0,1,.266.1.382.382,0,0,1,.155.318A6.768,6.768,0,0,1,32.76,30.64l-.074.155v.429l.281.1a.541.541,0,0,0,.118.03Zm2.24,1.53a8.589,8.589,0,0,0-2.4-.725l-.355-.177-1.93,5.138-.3.591h6.632v-.414L37,35.652A2.846,2.846,0,0,0,35.325,32.88Z" transform="translate(-8.829 -5.503)"/>
      <path id="Path_7174" data-name="Path 7174" d="M28.839,35.64l-.761-.192,1.545,4.111,1.545-4.118-.761.192a3.127,3.127,0,0,1-1.567.007Zm.037,5.8.813-.007-.488-.651-1.737-4.643-.148-.259h-.281l-.163.022a8.488,8.488,0,0,0-2.321.71A2.88,2.88,0,0,0,22.88,39.38l.007.865c.007.259.007.518.007.776v.407h5.981Z" transform="translate(-8.19 -9.239)"/>
    </g>
  </g>
</svg>
