<svg width="24" height="15" viewBox="0 0 24 15" fill="none" xmlns="http://www.w3.org/2000/svg">
<path d="M21.0775 2.08001C19.7866 0.843915 18.0669 0.107343 16.2464 0.0108418C14.426 -0.0856592 12.6322 0.464666 11.2075 1.55681H5.95747C5.85801 1.55681 5.76263 1.59474 5.69231 1.66225C5.62198 1.72976 5.58247 1.82133 5.58247 1.91681C5.58247 2.01229 5.62198 2.10385 5.69231 2.17137C5.76263 2.23888 5.85801 2.27681 5.95747 2.27681H10.4075C9.99203 2.70551 9.63347 3.18193 9.33997 3.69521H3.44247C3.34301 3.69521 3.24763 3.73314 3.17731 3.80065C3.10698 3.86816 3.06747 3.95973 3.06747 4.05521C3.06747 4.15069 3.10698 4.24225 3.17731 4.30977C3.24763 4.37728 3.34301 4.41521 3.44247 4.41521H8.97997C8.52601 5.48503 8.34846 6.64442 8.46247 7.79441H5.96247C5.86301 7.79441 5.76763 7.83234 5.69731 7.89985C5.62698 7.96736 5.58747 8.05893 5.58747 8.15441C5.58747 8.24989 5.62698 8.34145 5.69731 8.40897C5.76763 8.47648 5.86301 8.51441 5.96247 8.51441H8.57497C8.67135 8.9792 8.81625 9.43349 9.00747 9.87041H3.44247C3.34301 9.87041 3.24763 9.90834 3.17731 9.97585C3.10698 10.0434 3.06747 10.1349 3.06747 10.2304C3.06747 10.3259 3.10698 10.4175 3.17731 10.485C3.24763 10.5525 3.34301 10.5904 3.44247 10.5904H9.37497C9.65922 11.0848 10.0051 11.5442 10.405 11.9584H2.53247C2.43301 11.9584 2.33763 11.9963 2.26731 12.0638C2.19698 12.1314 2.15747 12.2229 2.15747 12.3184C2.15747 12.4139 2.19698 12.5055 2.26731 12.573C2.33763 12.6405 2.43301 12.6784 2.53247 12.6784H10.96C11.0257 12.6776 11.0901 12.6611 11.1475 12.6304C12.6188 13.8018 14.5047 14.3822 16.4112 14.2504C18.3178 14.1187 20.0976 13.285 21.3791 11.9235C22.6606 10.5619 23.3446 8.77779 23.2884 6.94358C23.2322 5.10936 22.4401 3.36689 21.0775 2.08001ZM20.5475 11.6344C19.6158 12.528 18.4291 13.1365 17.1374 13.3827C15.8456 13.629 14.5068 13.5021 13.2901 13.018C12.0735 12.534 11.0337 11.7145 10.3021 10.6632C9.57052 9.61185 9.18006 8.37592 9.18006 7.11161C9.18006 5.8473 9.57052 4.61137 10.3021 3.56006C11.0337 2.50875 12.0735 1.68926 13.2901 1.20519C14.5068 0.721122 15.8456 0.594203 17.1374 0.840479C18.4291 1.08676 19.6158 1.69517 20.5475 2.58881C21.7946 3.78955 22.4949 5.41599 22.4949 7.11161C22.4949 8.80723 21.7946 10.4337 20.5475 11.6344Z" fill="white"/>
<path d="M15.8375 1.75586C14.7344 1.75586 13.656 2.06989 12.7388 2.65824C11.8216 3.24659 11.1067 4.08283 10.6846 5.06122C10.2624 6.03961 10.152 7.1162 10.3672 8.15485C10.5824 9.1935 11.1136 10.1476 11.8936 10.8964C12.6737 11.6452 13.6675 12.1552 14.7494 12.3618C15.8313 12.5684 16.9528 12.4623 17.9719 12.0571C18.9911 11.6518 19.8622 10.9655 20.475 10.085C21.0879 9.20448 21.415 8.16926 21.415 7.11026C21.413 5.69077 20.8248 4.32996 19.7792 3.32623C18.7337 2.3225 17.3161 1.75776 15.8375 1.75586ZM16.2125 11.7183V11.2983C16.2125 11.2028 16.173 11.1112 16.1027 11.0437C16.0324 10.9762 15.937 10.9383 15.8375 10.9383C15.7381 10.9383 15.6427 10.9762 15.5723 11.0437C15.502 11.1112 15.4625 11.2028 15.4625 11.2983V11.7183C14.3184 11.6312 13.244 11.1559 12.4318 10.3775C11.6196 9.59905 11.1227 8.56843 11.03 7.47026H11.475C11.5745 7.47026 11.6699 7.43233 11.7402 7.36482C11.8105 7.2973 11.85 7.20574 11.85 7.11026C11.85 7.01478 11.8105 6.92321 11.7402 6.8557C11.6699 6.78819 11.5745 6.75026 11.475 6.75026H11.03C11.1205 5.65063 11.6165 4.61803 12.429 3.83806C13.2414 3.05809 14.3171 2.58189 15.4625 2.49506V2.92226C15.4625 3.01774 15.502 3.1093 15.5723 3.17682C15.6427 3.24433 15.7381 3.28226 15.8375 3.28226C15.937 3.28226 16.0324 3.24433 16.1027 3.17682C16.173 3.1093 16.2125 3.01774 16.2125 2.92226V2.49506C17.358 2.58189 18.4336 3.05809 19.2461 3.83806C20.0585 4.61803 20.5546 5.65063 20.645 6.75026H20.2C20.1006 6.75026 20.0052 6.78819 19.9348 6.8557C19.8645 6.92321 19.825 7.01478 19.825 7.11026C19.825 7.20574 19.8645 7.2973 19.9348 7.36482C20.0052 7.43233 20.1006 7.47026 20.2 7.47026H20.645C20.5524 8.56843 20.0554 9.59905 19.2432 10.3775C18.431 11.1559 17.3566 11.6312 16.2125 11.7183Z" fill="white"/>
<path d="M17.8975 7.9502L16.325 6.9902L17.9575 3.8702C17.9874 3.78696 17.9845 3.69608 17.9494 3.61476C17.9142 3.53343 17.8492 3.46729 17.7667 3.42886C17.6841 3.39043 17.5898 3.38237 17.5015 3.4062C17.4132 3.43004 17.3371 3.48411 17.2875 3.5582L15.5025 6.9494C15.4606 7.02898 15.451 7.12066 15.4754 7.20667C15.4999 7.29269 15.5568 7.36693 15.635 7.415L17.4925 8.5574C17.5523 8.59379 17.6217 8.61295 17.6925 8.6126C17.7736 8.61292 17.8526 8.588 17.9177 8.54158C17.9828 8.49516 18.0304 8.42974 18.0535 8.35513C18.0766 8.28052 18.0739 8.20073 18.0457 8.12772C18.0176 8.05472 17.9656 7.99243 17.8975 7.9502ZM4.7275 8.1518C4.7275 8.05632 4.68799 7.96475 4.61767 7.89724C4.54734 7.82973 4.45196 7.7918 4.3525 7.7918H0.375C0.275544 7.7918 0.180161 7.82973 0.109835 7.89724C0.0395088 7.96475 0 8.05632 0 8.1518C0 8.24728 0.0395088 8.33884 0.109835 8.40636C0.180161 8.47387 0.275544 8.5118 0.375 8.5118H4.3575C4.45609 8.51054 4.55019 8.47205 4.61944 8.40468C4.68869 8.3373 4.72751 8.24645 4.7275 8.1518ZM2.2125 2.2742H4.3575C4.45696 2.2742 4.55234 2.23627 4.62266 2.16876C4.69299 2.10124 4.7325 2.00968 4.7325 1.9142C4.7325 1.81872 4.69299 1.72715 4.62266 1.65964C4.55234 1.59213 4.45696 1.5542 4.3575 1.5542H2.2125C2.11304 1.5542 2.01766 1.59213 1.94734 1.65964C1.87701 1.72715 1.8375 1.81872 1.8375 1.9142C1.8375 2.00968 1.87701 2.10124 1.94734 2.16876C2.01766 2.23627 2.11304 2.2742 2.2125 2.2742ZM1.805 6.4382H6.7475C6.84696 6.4382 6.94234 6.40027 7.01267 6.33276C7.08299 6.26524 7.1225 6.17368 7.1225 6.0782C7.1225 5.98272 7.08299 5.89115 7.01267 5.82364C6.94234 5.75613 6.84696 5.7182 6.7475 5.7182H1.805C1.70554 5.7182 1.61016 5.75613 1.53983 5.82364C1.46951 5.89115 1.43 5.98272 1.43 6.0782C1.43 6.17368 1.46951 6.26524 1.53983 6.33276C1.61016 6.40027 1.70554 6.4382 1.805 6.4382Z" fill=""/>
</svg>
