<svg width="512" height="512" viewBox="0 0 512 512" fill="none" xmlns="http://www.w3.org/2000/svg">
<path d="M261.352 456.22C242.809 468.083 221.321 474.461 199.092 474.461C135.491 474.461 83.7402 422.716 83.7402 359.109C83.7402 295.567 135.491 243.875 199.092 243.875C220.918 243.875 242.016 250.059 260.325 261.508C263.727 212.491 250.393 188.585 280.33 158.267C262.403 138.172 247.448 123.726 240.25 117.185H149.866C144.175 130.885 134.816 164.46 169.06 183.983C174.293 186.967 176.126 193.633 173.142 198.865C170.158 204.103 163.487 205.931 158.254 202.942C139.082 192.013 129.203 177.429 125.036 162.354C119.356 182.059 119.708 203.981 138.144 220.552C142.631 224.581 143.004 231.481 138.975 235.962C134.923 240.454 128.021 240.805 123.565 236.783C101.579 217.03 97.3545 192.045 101.458 168.053C57.9283 221.834 5.05957 305.948 5.05957 388.906C5.05957 466.42 104.937 506.975 203.61 506.975C232.928 506.975 261.179 503.394 286.543 496.536C274.178 486.184 264.527 472.168 261.352 456.22ZM148.635 95.3483H237.964L282.088 16.6303C283.548 13.4279 281.96 10.2041 281.193 8.99994C280.426 7.80106 278.199 5.01959 273.904 5.01959H114.816C110.521 5.01959 108.294 7.80106 107.527 8.99994C106.759 10.2041 105.171 13.4279 107.004 17.3497L148.635 95.3483ZM282.099 207.876C288.531 288.184 506.549 286.768 506.94 204.972C506.94 169.036 458.568 142.058 394.434 142.058C356.617 142.058 323.082 151.42 302.439 167.742L302.422 167.763C290.386 177.241 282.024 189.424 282.024 204.806C282.024 205.803 282.014 206.879 282.099 207.876Z" fill="black"/>
<path d="M282.142 332.947V366.085C283.609 401.044 331.336 427.218 394.434 427.218C458.152 427.218 506.254 400.608 506.94 365.204V332.841C483.553 355.293 443.18 369.239 394.434 369.239C345.809 369.239 305.52 355.339 282.142 332.947Z" fill="black"/>
<path d="M282.142 412.752V434.736C283.319 438.606 273.845 468.308 316.585 490.291C337.11 501.066 364.733 506.98 394.435 506.98C458.483 506.98 506.855 480.039 506.94 444.312V412.646C483.553 435.097 443.18 449.044 394.435 449.044C345.809 449.044 305.52 435.144 282.142 412.752ZM394.435 289.268C356.245 289.268 311.123 279.998 283.215 254.149C282.88 253.839 282.471 253.567 282.142 253.253C282.142 256.63 282.142 287.379 282.142 286.28C283.609 321.239 331.336 347.413 394.435 347.413C458.152 347.413 506.254 320.803 506.94 285.399V252.848C479.431 279.263 432.95 289.268 394.435 289.268ZM260.316 288.459C243.137 273.747 221.567 265.701 199.092 265.701C147.522 265.701 105.566 307.604 105.566 359.109C105.566 410.678 147.522 452.635 199.092 452.635C221.567 452.635 243.137 444.584 260.316 429.872V366.363C260.296 365.718 260.178 365.098 260.178 364.448C260.178 364.205 260.3 364.001 260.316 363.762V288.459ZM233.631 326.062L210.974 363.02H224.189C227.178 363.02 229.187 365.355 229.187 368.146C229.187 371.019 227.099 373.139 224.189 373.139H205.177V385.411H224.189C227.189 385.411 229.187 387.767 229.187 390.537C229.187 393.409 227.099 395.529 224.189 395.529H205.177V406.996C205.177 410.524 202.257 413.066 199.102 413.066C195.969 413.066 193.028 410.547 193.028 406.996V395.529H174.016C171.104 395.529 169.018 393.408 169.018 390.537C169.018 387.772 171.011 385.411 174.016 385.411H193.028V373.139H174.016C171.104 373.139 169.018 371.017 169.018 368.146C169.018 365.359 171.023 363.02 174.016 363.02H187.23L164.574 326.062C162.747 323.12 163.355 319.834 165.384 317.968C168.088 315.458 173.012 315.178 175.764 319.987L199.102 360.862L222.441 319.987C225.199 315.167 230.138 315.478 232.821 317.968C234.841 319.827 235.465 323.109 233.631 326.062Z" fill="#F68F1E"/>
</svg>
