<svg width="20" height="20" viewBox="0 0 20 20" fill="none" xmlns="http://www.w3.org/2000/svg">
<g clip-path="url(#clip0_491_23)">
<mask id="path-1-inside-1_491_23" fill="white">
<path d="M18.8531 15.8817C19.7124 14.248 20.1015 12.4078 19.9771 10.566C19.8526 8.72424 19.2194 6.95315 18.1481 5.44986C18.141 5.43979 18.1333 5.43018 18.125 5.42111L18.1187 5.41361C17.8064 4.97409 17.4573 4.56197 17.075 4.18173C15.1996 2.30645 12.6562 1.25293 10.0041 1.25293C7.35196 1.25293 4.80848 2.30645 2.93312 4.18173C2.66086 4.45271 2.40617 4.74079 2.17063 5.04423C2.13745 5.07071 2.11002 5.10367 2.09 5.14111C2.09 5.14548 2.09 5.14986 2.08625 5.15423C0.917149 6.66437 0.207136 8.47894 0.0409071 10.3815C-0.125322 12.284 0.259251 14.1942 1.14875 15.8842C0.78831 16.2049 0.499662 16.5981 0.301701 17.0381C0.10374 17.4781 0.000929901 17.9549 0 18.4374L0 19.6874C0 19.7702 0.032924 19.8497 0.0915291 19.9083C0.150134 19.9669 0.22962 19.9999 0.3125 19.9999H19.6875C19.7704 19.9999 19.8499 19.9669 19.9085 19.9083C19.9671 19.8497 20 19.7702 20 19.6874V18.4374C19.9997 17.9546 19.8973 17.4774 19.6997 17.037C19.502 16.5966 19.2135 16.2029 18.8531 15.8817ZM18.3369 15.4986C17.8928 15.2281 17.3928 15.0629 16.875 15.0155C16.875 15.0099 16.875 15.0049 16.875 14.9999V14.0624C16.8735 14.0516 16.8714 14.041 16.8687 14.0305C17.304 13.7971 17.656 13.4343 17.876 12.9921C18.0961 12.5499 18.1732 12.0503 18.0969 11.5624H19.365C19.317 12.9346 18.9659 14.2793 18.3369 15.4999V15.4986ZM15.625 13.7499C15.1277 13.7499 14.6508 13.5523 14.2992 13.2007C13.9475 12.8491 13.75 12.3721 13.75 11.8749C13.79 11.8749 13.8297 11.8673 13.8669 11.8524L15.0194 11.3874C15.212 11.3093 15.4252 11.298 15.625 11.3555L17.4131 11.8636C17.441 11.8696 17.4696 11.8717 17.4981 11.8699V11.8749C17.4981 12.3718 17.3008 12.8484 16.9496 13.2C16.5984 13.5516 16.122 13.7494 15.625 13.7499ZM16.25 14.2861V14.9999C16.25 15.1656 16.1842 15.3246 16.0669 15.4418C15.9497 15.559 15.7908 15.6249 15.625 15.6249C15.4592 15.6249 15.3003 15.559 15.1831 15.4418C15.0658 15.3246 15 15.1656 15 14.9999V14.2861C15.4083 14.4045 15.8417 14.4045 16.25 14.2861ZM14.375 15.0286C14.1472 15.0492 13.9221 15.0928 13.7031 15.1586C13.4162 14.7659 13.0491 14.4386 12.6262 14.1985C12.2033 13.9583 11.7342 13.8107 11.25 13.7655C11.25 13.7599 11.25 13.7549 11.25 13.7499V12.8124C11.2485 12.8016 11.2464 12.791 11.2437 12.7805C11.7254 12.5044 12.1014 12.0758 12.3125 11.5624H13.155C13.1383 11.6658 13.1283 11.7702 13.125 11.8749C13.1264 12.3129 13.2433 12.7428 13.4638 13.1213C13.6844 13.4997 14.0008 13.8133 14.3813 14.0305C14.3786 14.041 14.3765 14.0516 14.375 14.0624V14.9999C14.375 15.0099 14.375 15.0192 14.375 15.0286ZM10 12.4999C9.50272 12.4999 9.02581 12.3023 8.67417 11.9507C8.32254 11.5991 8.125 11.1221 8.125 10.6249C8.16504 10.6249 8.20472 10.6173 8.24188 10.6024L9.39438 10.1374C9.58701 10.0593 9.80024 10.0481 10 10.1055L11.7881 10.6136C11.816 10.6196 11.8446 10.6217 11.8731 10.6199V10.6249C11.8731 11.1218 11.6758 11.5984 11.3246 11.95C10.9734 12.3016 10.497 12.4994 10 12.4999ZM10.625 13.0361V13.7499C10.625 13.9156 10.5592 14.0746 10.4419 14.1918C10.3247 14.309 10.1658 14.3749 10 14.3749C9.83424 14.3749 9.67527 14.309 9.55806 14.1918C9.44085 14.0746 9.375 13.9156 9.375 13.7499V13.0361C9.78326 13.1545 10.2167 13.1545 10.625 13.0361ZM8.75 13.7655C8.265 13.8101 7.79505 13.9574 7.37135 14.1976C6.94765 14.4378 6.57989 14.7654 6.2925 15.1586C6.07493 15.0928 5.85131 15.0491 5.625 15.028C5.625 15.018 5.625 15.0092 5.625 14.9999V14.0624C5.6235 14.0516 5.62142 14.041 5.61875 14.0305C5.99917 13.8133 6.31562 13.4997 6.53617 13.1213C6.75673 12.7428 6.8736 12.3129 6.875 11.8749C6.87106 11.7701 6.86041 11.6657 6.84313 11.5624H7.6875C7.8991 12.0761 8.27581 12.5047 8.75812 12.7805C8.75483 12.7909 8.75211 12.8016 8.75 12.8124V13.7499C8.75 13.7555 8.75 13.7605 8.75 13.7655ZM4.375 13.7499C3.92051 13.7485 3.48206 13.5817 3.14151 13.2807C2.80097 12.9797 2.5816 12.5651 2.52438 12.1142C3.2667 12.0959 3.99948 11.9426 4.68688 11.6617C5.17762 11.875 5.69871 12.0102 6.23125 12.0624C6.18574 12.5236 5.97071 12.9515 5.62778 13.2632C5.28486 13.575 4.83845 13.7484 4.375 13.7499ZM5 14.2861V14.9999C5 15.1656 4.93415 15.3246 4.81694 15.4418C4.69973 15.559 4.54076 15.6249 4.375 15.6249C4.20924 15.6249 4.05027 15.559 3.93306 15.4418C3.81585 15.3246 3.75 15.1656 3.75 14.9999V14.2861C3.95368 14.3423 4.16373 14.3721 4.375 14.3749C4.58627 14.3721 4.79632 14.3423 5 14.2861ZM7.53187 10.9374H6.6875C6.44353 10.3394 5.97833 9.8585 5.38875 9.59486C5.4731 8.59209 5.65394 7.59979 5.92875 6.63173C7.17259 6.82225 8.42756 6.93124 9.68562 6.95798V8.15611C9.08338 8.23136 8.52921 8.52356 8.12689 8.978C7.72458 9.43243 7.5017 10.0179 7.5 10.6249C7.50394 10.7296 7.51459 10.834 7.53187 10.9374ZM6.1875 11.4236C5.72193 11.3787 5.26858 11.2486 4.85 11.0399C4.80083 11.0097 4.74426 10.9937 4.68656 10.9937C4.62887 10.9937 4.5723 11.0097 4.52312 11.0399C3.90071 11.3282 3.22462 11.4823 2.53875 11.4924C2.62497 11.077 2.84976 10.7033 3.17625 10.4325C3.50274 10.1616 3.91156 10.0098 4.33569 10.0018C4.75981 9.99379 5.17407 10.1301 5.51053 10.3885C5.84699 10.6468 6.08569 11.0118 6.1875 11.4236ZM2.4375 10.3124C2.31466 10.1791 2.23337 10.013 2.20357 9.83422C2.17378 9.65547 2.19678 9.47192 2.26976 9.30605C2.34274 9.14019 2.46253 8.99922 2.61444 8.90042C2.76635 8.80163 2.94379 8.7493 3.125 8.74986C3.32406 8.7507 3.51758 8.81549 3.67703 8.93465C3.83648 9.05382 3.95343 9.22106 4.01062 9.41173C3.39153 9.5031 2.82973 9.82473 2.4375 10.3124ZM13.8906 11.1686C14.0313 10.8206 14.2735 10.523 14.5857 10.3146C14.8978 10.1062 15.2655 9.99653 15.6409 9.99997C16.0162 10.0034 16.3818 10.1198 16.6901 10.3339C16.9984 10.548 17.2351 10.85 17.3694 11.2005L15.7975 10.7549C15.4636 10.6601 15.1077 10.6788 14.7856 10.808L13.8906 11.1686ZM19.3631 10.9374H17.9375C17.7805 10.5515 17.5297 10.2109 17.2079 9.94633C16.8861 9.6818 16.5033 9.50171 16.0944 9.42236C16.0474 9.39245 15.9932 9.37602 15.9375 9.37486H15.775C15.7581 9.37674 15.7413 9.38008 15.725 9.38486C15.6912 9.38486 15.6594 9.37486 15.625 9.37486C15.4889 9.37744 15.3532 9.39124 15.2194 9.41611C15.1328 8.49259 14.9672 7.5782 14.7244 6.68298C15.0113 6.64173 15.2988 6.60048 15.5706 6.55048C16.3145 6.42281 17.0478 6.23959 17.7644 6.00236C18.7546 7.46242 19.3091 9.17402 19.3631 10.9374ZM16.6288 4.62111C16.8951 4.88962 17.1443 5.17455 17.375 5.47423C16.7481 5.66991 16.109 5.824 15.4619 5.93548C15.1694 5.98923 14.8606 6.03423 14.55 6.07798C14.1395 4.57509 13.3253 3.21333 12.1956 2.14048C13.8748 2.54024 15.4097 3.39911 16.6288 4.62111ZM10.3125 1.89736C11.7631 2.09798 13.1075 3.68423 13.9175 6.15611C12.7862 6.28437 11.6485 6.34843 10.51 6.34798C10.4437 6.34798 10.3787 6.34486 10.3125 6.34423V1.89736ZM10.3125 6.96986C10.3787 6.96986 10.4437 6.97361 10.51 6.97361C11.7099 6.97449 12.9088 6.905 14.1006 6.76548C14.3571 7.69091 14.5274 8.63807 14.6094 9.59486C14.0205 9.85889 13.556 10.3397 13.3125 10.9374H12.4681C12.4854 10.834 12.4961 10.7296 12.5 10.6249C12.4992 10.0436 12.296 9.48078 11.9251 9.03318C11.5543 8.58559 11.0391 8.2812 10.4681 8.17236C10.4215 8.14267 10.3677 8.12624 10.3125 8.12486V6.96986ZM11.7444 9.94986L10.1725 9.50423C9.83859 9.40976 9.48281 9.42844 9.16062 9.55736L8.26563 9.91861C8.40631 9.57061 8.6485 9.27303 8.96067 9.0646C9.27283 8.85616 9.64051 8.74653 10.0159 8.74997C10.3912 8.75341 10.7568 8.86976 11.0651 9.08388C11.3734 9.298 11.6101 9.59934 11.7444 9.94986ZM9.6875 1.89798V6.33548C8.49266 6.30897 7.3007 6.20689 6.11875 6.02986C6.93062 3.63236 8.26125 2.09548 9.6875 1.89798ZM3.37125 4.62111C4.59018 3.40055 6.12435 2.5428 7.8025 2.14361C6.70821 3.17311 5.91153 4.47844 5.49625 5.92236C5.15625 5.85986 4.82562 5.79111 4.51562 5.71486C3.95035 5.58405 3.39761 5.40399 2.86375 5.17673C3.01875 4.99236 3.18313 4.80861 3.37125 4.62111ZM2.47063 5.68361C3.08022 5.95925 3.71561 6.17384 4.3675 6.32423C4.66687 6.39798 4.98625 6.46423 5.31375 6.52611C5.049 7.472 4.87036 8.4399 4.78 9.41798C4.73375 9.41048 4.68625 9.40861 4.63937 9.40361C4.64348 9.36875 4.64158 9.33345 4.63375 9.29923C4.5357 8.93478 4.30906 8.61814 3.99569 8.4078C3.68233 8.19747 3.30343 8.10767 2.929 8.15498C2.55457 8.2024 2.20992 8.38354 1.95873 8.66522C1.70755 8.9469 1.5668 9.30997 1.5625 9.68736C1.56548 9.9083 1.6148 10.1262 1.70728 10.3268C1.79976 10.5275 1.93334 10.7066 2.09937 10.8524C2.08625 10.8811 2.07313 10.9086 2.06125 10.9374H0.638125C0.70297 9.04049 1.34172 7.20793 2.47 5.68173L2.47063 5.68361ZM0.635 11.5624H1.90688C1.88959 11.6657 1.87894 11.7701 1.875 11.8749C1.8764 12.3129 1.99327 12.7428 2.21383 13.1213C2.43438 13.4997 2.75083 13.8133 3.13125 14.0305C3.12858 14.041 3.1265 14.0516 3.125 14.0624V14.9999C3.125 15.0055 3.125 15.0105 3.125 15.0155C2.60659 15.0626 2.10586 15.2279 1.66125 15.4986C1.03302 14.2783 0.682567 12.9341 0.635 11.5624ZM5.625 17.1874V19.3749H0.625V18.4374C0.627581 17.7159 0.907312 17.023 1.40635 16.502C1.90539 15.981 2.58557 15.6716 3.30625 15.638C3.41559 15.8244 3.57177 15.979 3.7593 16.0864C3.94683 16.1938 4.1592 16.2503 4.37531 16.2503C4.59143 16.2503 4.80379 16.1938 4.99132 16.0864C5.17885 15.979 5.33504 15.8244 5.44438 15.638C5.61904 15.6464 5.79252 15.6713 5.9625 15.7124C5.74096 16.1725 5.62562 16.6766 5.625 17.1874ZM13.75 19.3749H6.25V17.1874C6.25258 16.4659 6.53231 15.773 7.03135 15.252C7.53039 14.731 8.21057 14.4216 8.93125 14.388C9.04075 14.5741 9.19696 14.7284 9.38441 14.8356C9.57186 14.9428 9.78406 14.9992 10 14.9992C10.2159 14.9992 10.4281 14.9428 10.6156 14.8356C10.803 14.7284 10.9592 14.5741 11.0687 14.388C11.7894 14.4216 12.4696 14.731 12.9686 15.252C13.4677 15.773 13.7474 16.4659 13.75 17.1874V19.3749ZM19.375 19.3749H14.375V17.1874C14.3745 16.6764 14.2591 16.1721 14.0375 15.7117C14.2075 15.6707 14.381 15.6458 14.5556 15.6374C14.665 15.8238 14.8211 15.9784 15.0087 16.0858C15.1962 16.1932 15.4086 16.2497 15.6247 16.2497C15.8408 16.2497 16.0532 16.1932 16.2407 16.0858C16.4282 15.9784 16.5844 15.8238 16.6937 15.6374C17.4145 15.671 18.0948 15.9804 18.5939 16.5016C19.0929 17.0228 19.3726 17.7158 19.375 18.4374V19.3749Z"/>
</mask>
<path d="M18.8531 15.8817C19.7124 14.248 20.1015 12.4078 19.9771 10.566C19.8526 8.72424 19.2194 6.95315 18.1481 5.44986C18.141 5.43979 18.1333 5.43018 18.125 5.42111L18.1187 5.41361C17.8064 4.97409 17.4573 4.56197 17.075 4.18173C15.1996 2.30645 12.6562 1.25293 10.0041 1.25293C7.35196 1.25293 4.80848 2.30645 2.93312 4.18173C2.66086 4.45271 2.40617 4.74079 2.17063 5.04423C2.13745 5.07071 2.11002 5.10367 2.09 5.14111C2.09 5.14548 2.09 5.14986 2.08625 5.15423C0.917149 6.66437 0.207136 8.47894 0.0409071 10.3815C-0.125322 12.284 0.259251 14.1942 1.14875 15.8842C0.78831 16.2049 0.499662 16.5981 0.301701 17.0381C0.10374 17.4781 0.000929901 17.9549 0 18.4374L0 19.6874C0 19.7702 0.032924 19.8497 0.0915291 19.9083C0.150134 19.9669 0.22962 19.9999 0.3125 19.9999H19.6875C19.7704 19.9999 19.8499 19.9669 19.9085 19.9083C19.9671 19.8497 20 19.7702 20 19.6874V18.4374C19.9997 17.9546 19.8973 17.4774 19.6997 17.037C19.502 16.5966 19.2135 16.2029 18.8531 15.8817ZM18.3369 15.4986C17.8928 15.2281 17.3928 15.0629 16.875 15.0155C16.875 15.0099 16.875 15.0049 16.875 14.9999V14.0624C16.8735 14.0516 16.8714 14.041 16.8687 14.0305C17.304 13.7971 17.656 13.4343 17.876 12.9921C18.0961 12.5499 18.1732 12.0503 18.0969 11.5624H19.365C19.317 12.9346 18.9659 14.2793 18.3369 15.4999V15.4986ZM15.625 13.7499C15.1277 13.7499 14.6508 13.5523 14.2992 13.2007C13.9475 12.8491 13.75 12.3721 13.75 11.8749C13.79 11.8749 13.8297 11.8673 13.8669 11.8524L15.0194 11.3874C15.212 11.3093 15.4252 11.298 15.625 11.3555L17.4131 11.8636C17.441 11.8696 17.4696 11.8717 17.4981 11.8699V11.8749C17.4981 12.3718 17.3008 12.8484 16.9496 13.2C16.5984 13.5516 16.122 13.7494 15.625 13.7499ZM16.25 14.2861V14.9999C16.25 15.1656 16.1842 15.3246 16.0669 15.4418C15.9497 15.559 15.7908 15.6249 15.625 15.6249C15.4592 15.6249 15.3003 15.559 15.1831 15.4418C15.0658 15.3246 15 15.1656 15 14.9999V14.2861C15.4083 14.4045 15.8417 14.4045 16.25 14.2861ZM14.375 15.0286C14.1472 15.0492 13.9221 15.0928 13.7031 15.1586C13.4162 14.7659 13.0491 14.4386 12.6262 14.1985C12.2033 13.9583 11.7342 13.8107 11.25 13.7655C11.25 13.7599 11.25 13.7549 11.25 13.7499V12.8124C11.2485 12.8016 11.2464 12.791 11.2437 12.7805C11.7254 12.5044 12.1014 12.0758 12.3125 11.5624H13.155C13.1383 11.6658 13.1283 11.7702 13.125 11.8749C13.1264 12.3129 13.2433 12.7428 13.4638 13.1213C13.6844 13.4997 14.0008 13.8133 14.3813 14.0305C14.3786 14.041 14.3765 14.0516 14.375 14.0624V14.9999C14.375 15.0099 14.375 15.0192 14.375 15.0286ZM10 12.4999C9.50272 12.4999 9.02581 12.3023 8.67417 11.9507C8.32254 11.5991 8.125 11.1221 8.125 10.6249C8.16504 10.6249 8.20472 10.6173 8.24188 10.6024L9.39438 10.1374C9.58701 10.0593 9.80024 10.0481 10 10.1055L11.7881 10.6136C11.816 10.6196 11.8446 10.6217 11.8731 10.6199V10.6249C11.8731 11.1218 11.6758 11.5984 11.3246 11.95C10.9734 12.3016 10.497 12.4994 10 12.4999ZM10.625 13.0361V13.7499C10.625 13.9156 10.5592 14.0746 10.4419 14.1918C10.3247 14.309 10.1658 14.3749 10 14.3749C9.83424 14.3749 9.67527 14.309 9.55806 14.1918C9.44085 14.0746 9.375 13.9156 9.375 13.7499V13.0361C9.78326 13.1545 10.2167 13.1545 10.625 13.0361ZM8.75 13.7655C8.265 13.8101 7.79505 13.9574 7.37135 14.1976C6.94765 14.4378 6.57989 14.7654 6.2925 15.1586C6.07493 15.0928 5.85131 15.0491 5.625 15.028C5.625 15.018 5.625 15.0092 5.625 14.9999V14.0624C5.6235 14.0516 5.62142 14.041 5.61875 14.0305C5.99917 13.8133 6.31562 13.4997 6.53617 13.1213C6.75673 12.7428 6.8736 12.3129 6.875 11.8749C6.87106 11.7701 6.86041 11.6657 6.84313 11.5624H7.6875C7.8991 12.0761 8.27581 12.5047 8.75812 12.7805C8.75483 12.7909 8.75211 12.8016 8.75 12.8124V13.7499C8.75 13.7555 8.75 13.7605 8.75 13.7655ZM4.375 13.7499C3.92051 13.7485 3.48206 13.5817 3.14151 13.2807C2.80097 12.9797 2.5816 12.5651 2.52438 12.1142C3.2667 12.0959 3.99948 11.9426 4.68688 11.6617C5.17762 11.875 5.69871 12.0102 6.23125 12.0624C6.18574 12.5236 5.97071 12.9515 5.62778 13.2632C5.28486 13.575 4.83845 13.7484 4.375 13.7499ZM5 14.2861V14.9999C5 15.1656 4.93415 15.3246 4.81694 15.4418C4.69973 15.559 4.54076 15.6249 4.375 15.6249C4.20924 15.6249 4.05027 15.559 3.93306 15.4418C3.81585 15.3246 3.75 15.1656 3.75 14.9999V14.2861C3.95368 14.3423 4.16373 14.3721 4.375 14.3749C4.58627 14.3721 4.79632 14.3423 5 14.2861ZM7.53187 10.9374H6.6875C6.44353 10.3394 5.97833 9.8585 5.38875 9.59486C5.4731 8.59209 5.65394 7.59979 5.92875 6.63173C7.17259 6.82225 8.42756 6.93124 9.68562 6.95798V8.15611C9.08338 8.23136 8.52921 8.52356 8.12689 8.978C7.72458 9.43243 7.5017 10.0179 7.5 10.6249C7.50394 10.7296 7.51459 10.834 7.53187 10.9374ZM6.1875 11.4236C5.72193 11.3787 5.26858 11.2486 4.85 11.0399C4.80083 11.0097 4.74426 10.9937 4.68656 10.9937C4.62887 10.9937 4.5723 11.0097 4.52312 11.0399C3.90071 11.3282 3.22462 11.4823 2.53875 11.4924C2.62497 11.077 2.84976 10.7033 3.17625 10.4325C3.50274 10.1616 3.91156 10.0098 4.33569 10.0018C4.75981 9.99379 5.17407 10.1301 5.51053 10.3885C5.84699 10.6468 6.08569 11.0118 6.1875 11.4236ZM2.4375 10.3124C2.31466 10.1791 2.23337 10.013 2.20357 9.83422C2.17378 9.65547 2.19678 9.47192 2.26976 9.30605C2.34274 9.14019 2.46253 8.99922 2.61444 8.90042C2.76635 8.80163 2.94379 8.7493 3.125 8.74986C3.32406 8.7507 3.51758 8.81549 3.67703 8.93465C3.83648 9.05382 3.95343 9.22106 4.01062 9.41173C3.39153 9.5031 2.82973 9.82473 2.4375 10.3124ZM13.8906 11.1686C14.0313 10.8206 14.2735 10.523 14.5857 10.3146C14.8978 10.1062 15.2655 9.99653 15.6409 9.99997C16.0162 10.0034 16.3818 10.1198 16.6901 10.3339C16.9984 10.548 17.2351 10.85 17.3694 11.2005L15.7975 10.7549C15.4636 10.6601 15.1077 10.6788 14.7856 10.808L13.8906 11.1686ZM19.3631 10.9374H17.9375C17.7805 10.5515 17.5297 10.2109 17.2079 9.94633C16.8861 9.6818 16.5033 9.50171 16.0944 9.42236C16.0474 9.39245 15.9932 9.37602 15.9375 9.37486H15.775C15.7581 9.37674 15.7413 9.38008 15.725 9.38486C15.6912 9.38486 15.6594 9.37486 15.625 9.37486C15.4889 9.37744 15.3532 9.39124 15.2194 9.41611C15.1328 8.49259 14.9672 7.5782 14.7244 6.68298C15.0113 6.64173 15.2988 6.60048 15.5706 6.55048C16.3145 6.42281 17.0478 6.23959 17.7644 6.00236C18.7546 7.46242 19.3091 9.17402 19.3631 10.9374ZM16.6288 4.62111C16.8951 4.88962 17.1443 5.17455 17.375 5.47423C16.7481 5.66991 16.109 5.824 15.4619 5.93548C15.1694 5.98923 14.8606 6.03423 14.55 6.07798C14.1395 4.57509 13.3253 3.21333 12.1956 2.14048C13.8748 2.54024 15.4097 3.39911 16.6288 4.62111ZM10.3125 1.89736C11.7631 2.09798 13.1075 3.68423 13.9175 6.15611C12.7862 6.28437 11.6485 6.34843 10.51 6.34798C10.4437 6.34798 10.3787 6.34486 10.3125 6.34423V1.89736ZM10.3125 6.96986C10.3787 6.96986 10.4437 6.97361 10.51 6.97361C11.7099 6.97449 12.9088 6.905 14.1006 6.76548C14.3571 7.69091 14.5274 8.63807 14.6094 9.59486C14.0205 9.85889 13.556 10.3397 13.3125 10.9374H12.4681C12.4854 10.834 12.4961 10.7296 12.5 10.6249C12.4992 10.0436 12.296 9.48078 11.9251 9.03318C11.5543 8.58559 11.0391 8.2812 10.4681 8.17236C10.4215 8.14267 10.3677 8.12624 10.3125 8.12486V6.96986ZM11.7444 9.94986L10.1725 9.50423C9.83859 9.40976 9.48281 9.42844 9.16062 9.55736L8.26563 9.91861C8.40631 9.57061 8.6485 9.27303 8.96067 9.0646C9.27283 8.85616 9.64051 8.74653 10.0159 8.74997C10.3912 8.75341 10.7568 8.86976 11.0651 9.08388C11.3734 9.298 11.6101 9.59934 11.7444 9.94986ZM9.6875 1.89798V6.33548C8.49266 6.30897 7.3007 6.20689 6.11875 6.02986C6.93062 3.63236 8.26125 2.09548 9.6875 1.89798ZM3.37125 4.62111C4.59018 3.40055 6.12435 2.5428 7.8025 2.14361C6.70821 3.17311 5.91153 4.47844 5.49625 5.92236C5.15625 5.85986 4.82562 5.79111 4.51562 5.71486C3.95035 5.58405 3.39761 5.40399 2.86375 5.17673C3.01875 4.99236 3.18313 4.80861 3.37125 4.62111ZM2.47063 5.68361C3.08022 5.95925 3.71561 6.17384 4.3675 6.32423C4.66687 6.39798 4.98625 6.46423 5.31375 6.52611C5.049 7.472 4.87036 8.4399 4.78 9.41798C4.73375 9.41048 4.68625 9.40861 4.63937 9.40361C4.64348 9.36875 4.64158 9.33345 4.63375 9.29923C4.5357 8.93478 4.30906 8.61814 3.99569 8.4078C3.68233 8.19747 3.30343 8.10767 2.929 8.15498C2.55457 8.2024 2.20992 8.38354 1.95873 8.66522C1.70755 8.9469 1.5668 9.30997 1.5625 9.68736C1.56548 9.9083 1.6148 10.1262 1.70728 10.3268C1.79976 10.5275 1.93334 10.7066 2.09937 10.8524C2.08625 10.8811 2.07313 10.9086 2.06125 10.9374H0.638125C0.70297 9.04049 1.34172 7.20793 2.47 5.68173L2.47063 5.68361ZM0.635 11.5624H1.90688C1.88959 11.6657 1.87894 11.7701 1.875 11.8749C1.8764 12.3129 1.99327 12.7428 2.21383 13.1213C2.43438 13.4997 2.75083 13.8133 3.13125 14.0305C3.12858 14.041 3.1265 14.0516 3.125 14.0624V14.9999C3.125 15.0055 3.125 15.0105 3.125 15.0155C2.60659 15.0626 2.10586 15.2279 1.66125 15.4986C1.03302 14.2783 0.682567 12.9341 0.635 11.5624ZM5.625 17.1874V19.3749H0.625V18.4374C0.627581 17.7159 0.907312 17.023 1.40635 16.502C1.90539 15.981 2.58557 15.6716 3.30625 15.638C3.41559 15.8244 3.57177 15.979 3.7593 16.0864C3.94683 16.1938 4.1592 16.2503 4.37531 16.2503C4.59143 16.2503 4.80379 16.1938 4.99132 16.0864C5.17885 15.979 5.33504 15.8244 5.44438 15.638C5.61904 15.6464 5.79252 15.6713 5.9625 15.7124C5.74096 16.1725 5.62562 16.6766 5.625 17.1874ZM13.75 19.3749H6.25V17.1874C6.25258 16.4659 6.53231 15.773 7.03135 15.252C7.53039 14.731 8.21057 14.4216 8.93125 14.388C9.04075 14.5741 9.19696 14.7284 9.38441 14.8356C9.57186 14.9428 9.78406 14.9992 10 14.9992C10.2159 14.9992 10.4281 14.9428 10.6156 14.8356C10.803 14.7284 10.9592 14.5741 11.0687 14.388C11.7894 14.4216 12.4696 14.731 12.9686 15.252C13.4677 15.773 13.7474 16.4659 13.75 17.1874V19.3749ZM19.375 19.3749H14.375V17.1874C14.3745 16.6764 14.2591 16.1721 14.0375 15.7117C14.2075 15.6707 14.381 15.6458 14.5556 15.6374C14.665 15.8238 14.8211 15.9784 15.0087 16.0858C15.1962 16.1932 15.4086 16.2497 15.6247 16.2497C15.8408 16.2497 16.0532 16.1932 16.2407 16.0858C16.4282 15.9784 16.5844 15.8238 16.6937 15.6374C17.4145 15.671 18.0948 15.9804 18.5939 16.5016C19.0929 17.0228 19.3726 17.7158 19.375 18.4374V19.3749Z" fill="black" stroke="black" stroke-width="8" mask="url(#path-1-inside-1_491_23)"/>
</g>
<defs>
<clipPath id="clip0_491_23">
<rect width="20" height="20" fill="white"/>
</clipPath>
</defs>
</svg>
