<svg width="19" height="18" viewBox="0 0 19 18" fill="none" xmlns="http://www.w3.org/2000/svg">
<path d="M15.6453 10.2094C15.3484 10.125 15.0813 10.0406 14.9031 9.95625C15.9125 9.19688 16.625 7.93125 16.625 6.21563C16.625 4.33125 14.9922 2.8125 13.0031 2.8125C12.7062 1.18125 11.2219 0 9.5 0C7.77812 0 6.32344 1.20938 5.99688 2.8125C4.00781 2.8125 2.375 4.33125 2.375 6.15937C2.375 7.59375 2.99844 9.08437 4.09688 9.92812L4.06719 9.95625C3.88906 10.0406 3.62188 10.125 3.35469 10.2094C2.10781 10.6031 0 11.2781 0 13.5844V15.1031C0 15.4125 0.267187 15.6656 0.59375 15.6656H2.43437C2.40469 15.8625 2.375 16.0875 2.375 16.3125V17.4375C2.375 17.7469 2.64219 18 2.96875 18H16.0312C16.3578 18 16.625 17.7469 16.625 17.4375V16.3125C16.625 16.0875 16.5953 15.8625 16.5656 15.6656H18.4062C18.7328 15.6656 19 15.4125 19 15.1031V13.5844C19 11.2781 16.8922 10.6031 15.6453 10.2094ZM15.4375 6.21563C15.4375 7.62188 14.6656 9.14063 13.3594 9.47813C13.5375 8.8875 13.6562 8.26875 13.6562 7.59375C13.6562 6.1875 12.8844 4.95 11.6969 4.275C12.0828 4.07812 12.5281 3.9375 12.9734 3.9375C14.3391 3.9375 15.4375 4.95 15.4375 6.21563ZM6.53125 7.59375C6.53125 6.04688 7.86719 4.78125 9.5 4.78125C11.1328 4.78125 12.4688 6.04688 12.4688 7.59375C12.4688 9.675 10.9844 11.8125 9.5 11.8125C8.01562 11.8125 6.53125 9.675 6.53125 7.59375ZM9.5 1.125C10.6281 1.125 11.6078 1.9125 11.8156 2.98125C11.3109 3.15 10.8359 3.40313 10.4203 3.74063C10.1234 3.68438 9.79688 3.62812 9.5 3.62812C9.17344 3.62812 8.87656 3.65625 8.57969 3.74063C8.19375 3.40313 7.71875 3.12188 7.18438 2.98125C7.39219 1.9125 8.37188 1.125 9.5 1.125ZM3.5625 6.15937C3.5625 4.92187 4.66094 3.9375 6.02656 3.9375C6.47187 3.9375 6.91719 4.05 7.30313 4.275C6.11563 4.95 5.34375 6.1875 5.34375 7.59375C5.34375 8.26875 5.4625 8.8875 5.64062 9.47813C4.33437 9.1125 3.5625 7.59375 3.5625 6.15937ZM1.1875 14.5406V13.5844C1.1875 12.2062 2.28594 11.7281 3.74063 11.2781C4.06719 11.1656 4.36406 11.0813 4.60156 10.9688C4.83906 10.8562 5.04688 10.7156 5.225 10.5188C5.52188 10.6031 5.84844 10.6594 6.20469 10.6875C6.53125 11.2219 6.91719 11.7 7.3625 12.0656C7.30312 12.0938 7.24375 12.1219 7.18438 12.15C6.97656 12.2344 6.65 12.3469 6.29375 12.4594C5.225 12.7969 3.65156 13.275 2.87969 14.5406H1.1875ZM17.8125 14.5406H16.15C15.3781 13.3031 13.8938 12.825 12.9734 12.5437C12.6469 12.4594 12.3203 12.6 12.2313 12.9094C12.1422 13.1906 12.2906 13.5281 12.6172 13.6125C14.1312 14.0906 15.4672 14.6531 15.4672 16.3125V16.875H3.5625V16.3125C3.5625 14.625 4.89844 14.0625 6.65 13.5281C7.06562 13.4156 7.39219 13.3031 7.65937 13.1625C7.92656 13.05 8.16406 12.8812 8.34219 12.6844C8.72813 12.8531 9.11406 12.9375 9.5 12.9375C10.7172 12.9375 11.9938 12.0656 12.825 10.6875C13.1516 10.6875 13.4781 10.6313 13.8047 10.5188C13.9828 10.7156 14.1906 10.8562 14.4281 10.9688C14.6656 11.0813 14.9625 11.1656 15.2891 11.2781C16.7141 11.7281 17.8422 12.2062 17.8422 13.5844V14.5406H17.8125Z" fill="#f7901f"/>
</svg>
