<svg xmlns="http://www.w3.org/2000/svg" width="25" height="25" viewBox="0 0 25 25">
  <g id="Group_13905" data-name="Group 13905" transform="translate(-6422 961) rotate(-90)">
    <g id="Polygon_1" data-name="Polygon 1" transform="translate(936 6422)" fill="#fff">
      <path d="M 17.26345062255859 24 L 7.736549854278564 24 L 1 17.26345062255859 L 1 7.736549854278564 L 7.736549854278564 1 L 17.26345062255859 1 L 24 7.736549854278564 L 24 17.26345062255859 L 17.26345062255859 24 Z" stroke="none"/>
      <path d="M 8.150749206542969 2 L 2 8.150749206542969 L 2 16.84925079345703 L 8.150749206542969 23 L 16.84925079345703 23 L 23 16.84925079345703 L 23 8.150749206542969 L 16.84925079345703 2 L 8.150749206542969 2 M 7.322330474853516 0 L 17.67766952514648 0 L 25 7.322330474853516 L 25 17.67766952514648 L 17.67766952514648 25 L 7.322330474853516 25 L 0 17.67766952514648 L 0 7.322330474853516 L 7.322330474853516 0 Z" stroke="none" fill="#f7901f"/>
    </g>
    <path id="Icon_ionic-md-arrow-dropright" data-name="Icon ionic-md-arrow-dropright" d="M13.5,9l7.555,7.555L13.5,24.111l2.18-7.555Z" transform="translate(932.222 6418.444)"/>
  </g>
</svg>
