<svg xmlns="http://www.w3.org/2000/svg" width="71.642" height="71.126" viewBox="0 0 71.642 71.126">
  <g id="management_process" data-name="management process" transform="translate(-1402.563 -5634.379)">
    <path id="Path_21928" data-name="Path 21928" d="M30.26,10.995c3.413-26.869,30.26,1.884,30.26,18.6A30.26,30.26,0,0,1,0,29.591C0,12.878,26.847,37.863,30.26,10.995Z" transform="matrix(0.978, -0.208, 0.208, 0.978, 1402.563, 5646.962)" fill="#fae1c5"/>
    <path id="support" d="M51.825,27.138l.707-11.49A12.946,12.946,0,0,0,48.643,5.4,13.835,13.835,0,0,0,38.391,1.506L27.078,2.39,15.765,1.683A13.416,13.416,0,0,0,5.335,5.4,13.416,13.416,0,0,0,1.623,15.825L2.33,27.138l-.707,11.49A12.946,12.946,0,0,0,5.512,48.88a13.835,13.835,0,0,0,10.252,3.889l11.313-.884,11.49.707h.884A13.244,13.244,0,0,0,48.82,48.7a13.835,13.835,0,0,0,3.889-10.253Zm-1.944,2.121v.53c0,.53-.177,1.061-.177,1.591v.53c-.177.53-.177,1.061-.354,1.591l-8.662-1.944c.177-.707.354-1.237.53-1.944V27.138a6.628,6.628,0,0,0-.177-1.944V24.84a7.969,7.969,0,0,0-.53-1.944l8.662-1.944a5.161,5.161,0,0,1,.354,1.591v.53a4.894,4.894,0,0,1,.177,1.591v.53c0,.707.177,1.414.177,2.121a7.163,7.163,0,0,1,0,1.944ZM39.8,21.128a14.553,14.553,0,0,0-6.717-6.717l1.944-8.662A22.559,22.559,0,0,1,48.643,19.36Zm-.354,7.247a.649.649,0,0,1-.177.53v.53c0,.354-.177.53-.177.884v.354c-.177.354-.177.53-.354.884a12.636,12.636,0,0,1-7.071,7.071c-.354.177-.53.177-.884.354h-.177a2.242,2.242,0,0,1-1.061.177,10.09,10.09,0,0,1-4.6,0c-.354,0-.707-.177-1.061-.177h-.177c-.354-.177-.707-.177-.884-.354a12.636,12.636,0,0,1-7.071-7.071c-.177-.354-.177-.53-.354-.884v-.354c0-.354-.177-.53-.177-.884v-.53a.649.649,0,0,0-.177-.53V25.9a.649.649,0,0,1,.177-.53v-.53c0-.354.177-.53.177-.884V23.6c.177-.354.177-.53.354-.884a12.636,12.636,0,0,1,7.071-7.071c.354-.177.53-.177.884-.354H23.9a2.242,2.242,0,0,1,1.061-.177,10.091,10.091,0,0,1,4.6,0c.354,0,.707.177,1.061.177h.177c.354.177.707.177.884.354a12.636,12.636,0,0,1,7.071,7.071c.177.354.177.53.354.884v.354c0,.354.177.53.177.884v.53a.649.649,0,0,0,.177.53v2.475ZM31.5,40.572l1.944,8.662a4.16,4.16,0,0,1-1.414.354.649.649,0,0,0-.53.177,4.393,4.393,0,0,1-1.414.177h-.707a6.013,6.013,0,0,0-1.768.177h-.354a6.013,6.013,0,0,1-1.768-.177H24.78c-.53,0-1.061-.177-1.414-.177a.649.649,0,0,1-.53-.177c-.53-.177-1.061-.177-1.414-.354l1.944-8.662c.707.177,1.237.354,1.944.53h.354c0,.177.707.177,1.414.177a6.628,6.628,0,0,0,1.944-.177h.354l2.121-.53ZM22.659,13.7,20.714,5.042a4.16,4.16,0,0,1,1.414-.354.649.649,0,0,0,.53-.177,4.393,4.393,0,0,1,1.414-.177h.707a6.013,6.013,0,0,0,1.768-.177h.707a6.014,6.014,0,0,1,1.768.177h.707c.53,0,1.061.177,1.414.177a.649.649,0,0,1,.53.177c.53.177,1.061.177,1.414.354L31.143,13.7c-.707-.177-1.237-.354-1.944-.53h-.354A4.926,4.926,0,0,0,27.078,13a6.628,6.628,0,0,0-1.944.177H24.78ZM19.123,5.572l1.944,8.662a14.553,14.553,0,0,0-6.717,6.717L5.689,19.006A22.907,22.907,0,0,1,19.123,5.572Zm-6.01,19.091v.354a8.606,8.606,0,0,0-.177,2.121,6.628,6.628,0,0,0,.177,1.944v.354a7.969,7.969,0,0,0,.53,1.944L4.982,33.325a5.161,5.161,0,0,1-.354-1.591V31.2a4.894,4.894,0,0,1-.177-1.591v-.53A3.5,3.5,0,0,1,4.1,27.138a8.606,8.606,0,0,1,.177-2.121v-.53c0-.53.177-1.061.177-1.591v-.53c.177-.53.177-1.061.354-1.591l8.662,1.944a6.355,6.355,0,0,1-.354,1.944Zm1.237,8.485a14.553,14.553,0,0,0,6.717,6.717l-1.944,8.662A22.727,22.727,0,0,1,5.512,35.092l8.838-1.944ZM35.032,48.7l-1.944-8.662A14.553,14.553,0,0,0,39.8,33.325l8.662,1.944A22.907,22.907,0,0,1,35.032,48.7ZM38.568,3.451a11.581,11.581,0,0,1,8.838,3.359,11.834,11.834,0,0,1,3.359,8.838l-.177,3.889A25.152,25.152,0,0,0,34.855,3.628l3.712-.177ZM6.573,6.633a11.834,11.834,0,0,1,8.838-3.359l3.889.177A25.152,25.152,0,0,0,3.391,19.183V15.648A11.426,11.426,0,0,1,6.573,6.633Zm9.015,44.192A11.581,11.581,0,0,1,6.75,47.466a11.834,11.834,0,0,1-3.359-8.838l.177-3.889A25.152,25.152,0,0,0,19.3,50.648Zm31.995-3.182A11.834,11.834,0,0,1,38.744,51l-3.889-.177A25.152,25.152,0,0,0,50.765,35.092l.177,3.889A11.969,11.969,0,0,1,47.583,47.643Z" transform="translate(1416.412 5645.107)"/>
  </g>
</svg>
