<svg xmlns="http://www.w3.org/2000/svg" width="82.863" height="84.771" viewBox="0 0 82.863 84.771">
  <g id="mobile_dev_service" data-name="mobile dev service" transform="translate(-1019.568 -3524.75)">
    <path id="Path_21907" data-name="Path 21907" d="M35,13.491C38.948-17.586,70,15.67,70,35A35,35,0,0,1,0,35C0,15.67,31.052,44.568,35,13.491Z" transform="matrix(0.978, -0.208, 0.208, 0.978, 1019.407, 3541.05)" fill="#78eee3"/>
    <g id="mobile-app_dev" data-name="mobile-app dev" transform="translate(1049.319 3524.75)">
      <path id="Path_21910" data-name="Path 21910" d="M21.953,12.726,17.243,10a2.366,2.366,0,0,0-2.355,0l-4.71,2.721A2.355,2.355,0,0,0,9,14.765V20.2a2.355,2.355,0,0,0,1.178,2.04l4.71,2.721a2.358,2.358,0,0,0,2.355,0l4.71-2.721A2.355,2.355,0,0,0,23.13,20.2V14.765A2.355,2.355,0,0,0,21.953,12.726ZM18.42,18.843,16.065,20.2,13.71,18.843V16.125l2.355-1.359,2.355,1.359Z" transform="translate(2.775 13.249)"/>
      <path id="Path_21911" data-name="Path 21911" d="M32.26,2H13.42C8.226,2,4,6.978,4,13.1V46.4c0,6.122,4.226,11.1,9.42,11.1H32.26c5.194,0,9.42-4.978,9.42-11.1V13.1C41.68,6.978,37.455,2,32.26,2Zm4.71,44.4c0,3.059-2.112,5.55-4.71,5.55H13.42c-2.6,0-4.71-2.491-4.71-5.55V13.1c0-3.059,2.112-5.55,4.71-5.55H32.26c2.6,0,4.71,2.491,4.71,5.55Z" transform="translate(-4 -2)"/>
      <path id="Path_21912" data-name="Path 21912" d="M12.355,9.71h4.71a2.355,2.355,0,1,0,0-4.71h-4.71a2.355,2.355,0,1,0,0,4.71Z" transform="translate(4.13 2.065)"/>
    </g>
  </g>
</svg>
