<svg width="16" height="21" viewBox="0 0 16 21" fill="none" xmlns="http://www.w3.org/2000/svg">
<path fill-rule="evenodd" clip-rule="evenodd" d="M6.58567 2.2077C6.88907 1.96581 7.27164 1.83333 7.66667 1.83333C8.06169 1.83333 8.44426 1.96581 8.74767 2.20771L13.0719 5.65449C13.2904 5.82864 13.4167 6.08664 13.4167 6.35869V17.4167C13.4167 17.9229 12.9876 18.3333 12.4583 18.3333H2.875C2.34573 18.3333 1.91667 17.9229 1.91667 17.4167V6.35869C1.91667 6.08664 2.04299 5.82864 2.26149 5.65449L6.58567 2.2077ZM7.66667 0C6.82324 0 6.00655 0.282838 5.35862 0.799297L1.03447 4.24608C0.378992 4.76856 0 5.54254 0 6.35869V17.4167C0 18.9355 1.28719 20.1667 2.875 20.1667H12.4583C14.0462 20.1667 15.3333 18.9355 15.3333 17.4167V6.35869C15.3333 5.54254 14.9543 4.76856 14.2989 4.24608L9.97472 0.799297C9.32679 0.282838 8.5101 0 7.66667 0ZM8.625 6.41667C8.625 5.91041 8.19595 5.5 7.66667 5.5C7.13738 5.5 6.70833 5.91045 6.70833 6.41667C5.12052 6.41667 3.83333 7.64789 3.83333 9.16667C3.83333 10.6855 5.12052 11.9167 6.70833 11.9167H8.625C9.15429 11.9167 9.58333 12.3271 9.58333 12.8333C9.58333 13.3396 9.15429 13.75 8.625 13.75H5.75C5.22073 13.75 4.79167 14.1604 4.79167 14.6667C4.79167 15.1729 5.22073 15.5833 5.75 15.5833H6.70833C6.70833 16.0896 7.13738 16.4999 7.66667 16.4999C8.19595 16.4999 8.625 16.0896 8.625 15.5833C10.2129 15.5833 11.5 14.3522 11.5 12.8333C11.5 11.3145 10.2129 10.0833 8.625 10.0833H6.70833C6.17905 10.0833 5.75 9.67294 5.75 9.16667C5.75 8.66039 6.17905 8.25 6.70833 8.25H9.58333C10.1126 8.25 10.5417 7.83959 10.5417 7.33333C10.5417 6.82708 10.1126 6.41667 9.58333 6.41667H8.625Z" fill="white"/>
</svg>
