<svg xmlns="http://www.w3.org/2000/svg" width="82.863" height="82.267" viewBox="0 0 82.863 82.267">
  <g id="ui_ux_service" data-name="ui ux service" transform="translate(-424.568 -3527.254)">
    <path id="Path_" data-name="Path " d="M35,13.491C38.948-17.586,70,15.67,70,35A35,35,0,0,1,0,35C0,15.67,31.052,44.568,35,13.491Z" transform="matrix(0.978, -0.208, 0.208, 0.978, 424.407, 3541.05)" fill="#ffcc92"/>
    <path id="ui_ux_icon" data-name="ui ux icon" d="M18.8,25.1H4.1A2.1,2.1,0,0,0,2,27.2V41.9A2.1,2.1,0,0,0,4.1,44H18.8a2.1,2.1,0,0,0,2.1-2.1V27.2A2.1,2.1,0,0,0,18.8,25.1ZM16.7,39.8H6.2V29.3H16.7ZM41.9,2H27.2a2.1,2.1,0,0,0-2.1,2.1V18.8a2.1,2.1,0,0,0,2.1,2.1H41.9A2.1,2.1,0,0,0,44,18.8V4.1A2.1,2.1,0,0,0,41.9,2ZM39.8,16.7H29.3V6.2H39.8Zm2.1,8.4H27.2a2.1,2.1,0,0,0-2.1,2.1V41.9A2.1,2.1,0,0,0,27.2,44H41.9A2.1,2.1,0,0,0,44,41.9V27.2A2.1,2.1,0,0,0,41.9,25.1ZM39.8,39.8H29.3V29.3H39.8ZM18.8,2H4.1A2.1,2.1,0,0,0,2,4.1V18.8a2.1,2.1,0,0,0,2.1,2.1H18.8a2.1,2.1,0,0,0,2.1-2.1V4.1A2.1,2.1,0,0,0,18.8,2ZM16.7,16.7H6.2V6.2H16.7Z" transform="translate(448 3537.033)"/>
  </g>
</svg>
