<?xml version="1.0" encoding="utf-8"?>
<!-- Generator: Adobe Illustrator 26.0.3, SVG Export Plug-In . SVG Version: 6.00 Build 0)  -->
<svg version="1.1" id="Layer_1" xmlns="http://www.w3.org/2000/svg" xmlns:xlink="http://www.w3.org/1999/xlink" x="0px" y="0px"
	 viewBox="0 0 1080 1080" style="enable-background:new 0 0 1080 1080;" xml:space="preserve">
<style type="text/css">
	.st0{fill:#1B3760;}
	.st1{fill:#4DBBBD;}
</style>
<g>
	<polygon class="st0" points="486.5,464.2 441.6,579 415,579 370,464.2 398.8,464.2 428.6,544.6 458.2,464.2 	"/>
	<path class="st0" d="M478.9,536.6c0-25.3,19.6-44.4,45.8-44.4c26.1,0,45.8,19.1,45.8,44.4c0,25.3-19.6,44.4-45.8,44.4
		C498.5,581,478.9,561.9,478.9,536.6 M545.5,536.6c0-12-8.8-21-20.8-21c-12,0-20.8,9-20.8,21c0,12,8.8,21,20.8,21
		C536.6,557.6,545.5,548.6,545.5,536.6"/>
	<path class="st0" d="M664.7,494.2l-40.5,98.5c-4.8,12.3-15.5,20-27.3,20c-8,0-17.3-3.3-23.3-8.7l9.3-19c2.5,2.5,6.3,4.2,10,4.2
		c3.7,0,7-1.8,9.2-6.3l2.5-5.3l-34-83.4h27.8l19.6,53.9l19.5-53.9H664.7z"/>
	<path class="st0" d="M756.2,494.2V579h-24.3v-8.5c-6.5,6.7-15.3,10.5-25.6,10.5c-23.3,0-41-19.1-41-44.4c0-25.3,17.6-44.4,41-44.4
		c10.3,0,19.1,3.8,25.6,10.5v-8.5H756.2z M731.9,536.6c0-12-8.8-21-20.8-21c-11.8,0-20.6,9-20.6,21c0,12,8.8,21,20.6,21
		C723.1,557.6,731.9,548.6,731.9,536.6"/>
	<path class="st0" d="M799.1,578.2h26.5c4.5,0,7.7-2.5,7.7-6.3c0-2.5-1.3-4.8-3.8-6.5c-4,1.2-8.2,1.7-12.5,1.7
		c-23,0-40.3-16-40.3-37.5c0-8.2,2.5-15.3,6.7-21.3c-0.8-3.2-4-5.2-8-5.2h-6v-22.5h7.2c11.6,0,20.1,5.8,22.6,15
		c5.3-2.2,11.3-3.5,17.8-3.5c23,0,40.1,16,40.1,37.5c0,10.5-4.2,19.8-11.2,26.5c7.2,4.3,11.6,13,11.6,22c0,14.1-10.8,23.6-27.3,23.6
		h-26.5c-6.8,0-11.5,3.7-12.2,9.2l-25-6.8C769.8,587.7,781.9,578.2,799.1,578.2 M816.9,515.1c-8.7,0-15.3,6.2-15.3,14.5
		c0,8.3,6.7,14.5,15.3,14.5c8.7,0,15.1-6.2,15.1-14.5C832.1,521.3,825.7,515.1,816.9,515.1"/>
	<path class="st0" d="M953,544.6h-63.3c3,9.5,11.2,15.3,21.8,15.3c9.7,0,17.3-4.5,21.3-9.5l16.3,14.1c-9,10.2-22.6,16.5-38.3,16.5
		c-27,0-47.3-19.3-47.3-44.9c0-25,19.5-43.9,45.3-43.9c25.5,0,44.6,19,44.6,44.8C953.5,539.3,953.3,542.4,953,544.6 M889.6,528.4
		h38.1c-2.7-9.5-10-15.3-19.1-15.3C899.4,513.1,892.1,519.1,889.6,528.4"/>
	<g>
		<path class="st0" d="M450.1,667.5h-4.9v-25.9h-8.8v-4.2h22.6v4.2h-8.8V667.5z"/>
		<path class="st0" d="M491.7,667.5h-17v-30.1h17v4.2h-12.1v8.2H491v4.1h-11.3v9.4h12.1V667.5z"/>
		<path class="st0" d="M522.1,641.2c-2.8,0-5,1-6.7,3c-1.6,2-2.4,4.8-2.4,8.3c0,3.7,0.8,6.5,2.3,8.4c1.6,1.9,3.8,2.8,6.8,2.8
			c1.3,0,2.5-0.1,3.7-0.4s2.4-0.6,3.7-1v4.2c-2.4,0.9-5,1.3-8,1.3c-4.4,0-7.8-1.3-10.1-4c-2.4-2.7-3.5-6.5-3.5-11.5
			c0-3.1,0.6-5.9,1.7-8.2c1.1-2.3,2.8-4.1,5-5.4c2.2-1.2,4.7-1.9,7.6-1.9c3.1,0,5.9,0.6,8.5,1.9l-1.8,4.1c-1-0.5-2.1-0.9-3.2-1.3
			C524.6,641.4,523.4,641.2,522.1,641.2z"/>
		<path class="st0" d="M570.9,667.5H566v-13.6h-13.9v13.6h-4.9v-30.1h4.9v12.3H566v-12.3h4.9V667.5z"/>
		<path class="st0" d="M615.1,667.5h-6l-14.8-24h-0.2l0.1,1.3c0.2,2.6,0.3,4.9,0.3,7v15.6H590v-30.1h6l14.8,23.8h0.1
			c0-0.3-0.1-1.5-0.2-3.4c-0.1-2-0.1-3.5-0.1-4.6v-15.8h4.5V667.5z"/>
		<path class="st0" d="M660.9,652.4c0,4.9-1.2,8.7-3.7,11.4s-5.9,4.1-10.4,4.1c-4.5,0-8-1.3-10.5-4c-2.4-2.7-3.7-6.5-3.7-11.5
			c0-5,1.2-8.8,3.7-11.4c2.4-2.7,5.9-4,10.5-4c4.5,0,7.9,1.4,10.4,4.1C659.6,643.7,660.9,647.5,660.9,652.4z M637.9,652.4
			c0,3.7,0.7,6.5,2.2,8.4c1.5,1.9,3.7,2.9,6.6,2.9c2.9,0,5.1-0.9,6.6-2.8s2.2-4.7,2.2-8.5c0-3.7-0.7-6.5-2.2-8.4
			c-1.5-1.9-3.7-2.9-6.6-2.9c-2.9,0-5.2,1-6.7,2.9C638.7,645.9,637.9,648.7,637.9,652.4z"/>
		<path class="st0" d="M678.4,667.5v-30.1h4.9v25.9h12.7v4.2H678.4z"/>
		<path class="st0" d="M739.2,652.4c0,4.9-1.2,8.7-3.7,11.4s-5.9,4.1-10.4,4.1c-4.5,0-8-1.3-10.5-4c-2.4-2.7-3.7-6.5-3.7-11.5
			c0-5,1.2-8.8,3.7-11.4c2.4-2.7,5.9-4,10.5-4c4.5,0,7.9,1.4,10.4,4.1C737.9,643.7,739.2,647.5,739.2,652.4z M716.2,652.4
			c0,3.7,0.7,6.5,2.2,8.4c1.5,1.9,3.7,2.9,6.6,2.9c2.9,0,5.1-0.9,6.6-2.8s2.2-4.7,2.2-8.5c0-3.7-0.7-6.5-2.2-8.4
			c-1.5-1.9-3.7-2.9-6.6-2.9c-2.9,0-5.2,1-6.7,2.9C716.9,645.9,716.2,648.7,716.2,652.4z"/>
		<path class="st0" d="M769,651.2h11.1v15.1c-1.8,0.6-3.5,1-5.2,1.3c-1.7,0.2-3.5,0.4-5.4,0.4c-4.6,0-8.1-1.3-10.5-4
			c-2.5-2.7-3.7-6.5-3.7-11.4c0-4.8,1.4-8.6,4.2-11.4s6.6-4.1,11.5-4.1c3.1,0,6.1,0.6,8.9,1.8l-1.7,4.1c-2.4-1.1-4.9-1.7-7.3-1.7
			c-3.2,0-5.7,1-7.6,3s-2.8,4.8-2.8,8.3c0,3.7,0.8,6.5,2.5,8.4c1.7,1.9,4.1,2.9,7.3,2.9c1.6,0,3.3-0.2,5.1-0.6v-7.8H769V651.2z"/>
		<path class="st0" d="M798.5,667.5v-30.1h4.9v30.1H798.5z"/>
		<path class="st0" d="M839.5,667.5h-17v-30.1h17v4.2h-12.1v8.2h11.3v4.1h-11.3v9.4h12.1V667.5z"/>
		<path class="st0" d="M874.4,659.3c0,2.7-1,4.8-2.9,6.3c-1.9,1.5-4.6,2.3-8,2.3c-3.4,0-6.2-0.5-8.4-1.6v-4.6
			c1.4,0.6,2.8,1.2,4.4,1.5s3,0.6,4.3,0.6c1.9,0,3.4-0.4,4.3-1.1s1.4-1.7,1.4-3c0-1.1-0.4-2.1-1.3-2.9c-0.9-0.8-2.6-1.7-5.3-2.8
			c-2.7-1.1-4.7-2.4-5.8-3.8c-1.1-1.4-1.7-3.1-1.7-5.1c0-2.5,0.9-4.5,2.7-5.9c1.8-1.4,4.2-2.2,7.2-2.2c2.9,0,5.7,0.6,8.6,1.9l-1.6,4
			c-2.7-1.1-5.1-1.7-7.2-1.7c-1.6,0-2.8,0.3-3.6,1s-1.2,1.6-1.2,2.7c0,0.8,0.2,1.5,0.5,2s0.9,1.1,1.6,1.6c0.8,0.5,2.1,1.1,4.1,2
			c2.2,0.9,3.8,1.8,4.9,2.6c1,0.8,1.8,1.7,2.3,2.7C874.2,656.8,874.4,657.9,874.4,659.3z"/>
	</g>
	<path class="st1" d="M989.5,569.3c0,6.5-5.3,11.7-11.7,11.7c-6.5,0-11.7-5.3-11.7-11.7c0-6.5,5.3-11.7,11.7-11.7
		C984.2,557.6,989.5,562.8,989.5,569.3"/>
	<path class="st1" d="M258.1,400.6c-25.8,0-46.6,20.9-46.6,46.6c0,1.8,0.1,3.5,0.3,5.2l0,0c0,0,0,0.1,0,0.2c0.2,1.9,0.6,3.7,1,5.5
		c1.4,10.4,1.3,31.4-21.6,30l0.1,0.4c-1.2-0.2-2.5-0.4-3.8-0.4c-10.3,0-18.6,8.3-18.6,18.6c0,10.3,8.3,18.6,18.6,18.6
		c10.3,0,18.6-8.3,18.6-18.6c0-1.3-0.1-2.5-0.4-3.7h0c0,0,8.2-23,33.8-13l0,0c5.7,2.5,12,3.9,18.6,3.9c25.8,0,46.6-20.9,46.6-46.6
		S283.9,400.6,258.1,400.6"/>
	<path class="st1" d="M180.9,544.3v-0.4c-32.8-7.2-29.2-35-25.7-47.7c0.5-1.2,0.8-2.5,1.2-3.7c0.6-1.7,1-2.7,1-2.7l-0.4-0.3
		c0.2-1.6,0.4-3.3,0.4-5c0-18.5-15-33.4-33.4-33.4c-18.5,0-33.4,15-33.4,33.4c0,14.6,9.3,26.9,22.4,31.5l0,0
		c0.2,0.1,0.5,0.2,0.7,0.2c0.2,0.1,0.5,0.2,0.7,0.2c39.6,12.5,28.9,43.3,28.9,43.3l0,0c-5.4,6.9-8.6,15.6-8.6,25
		c0,22.6,18.3,40.9,40.9,40.9s40.9-18.3,40.9-40.9C216.4,564,200.9,546.9,180.9,544.3"/>
	<path class="st1" d="M122.5,549.8c0,7-5.6,12.6-12.6,12.6c-7,0-12.6-5.6-12.6-12.6c0-7,5.6-12.6,12.6-12.6
		C116.9,537.3,122.5,542.9,122.5,549.8"/>
</g>
<g>
</g>
<g>
</g>
<g>
</g>
<g>
</g>
<g>
</g>
<g>
</g>
</svg>
