<svg xmlns="http://www.w3.org/2000/svg" width="82.863" height="82.267" viewBox="0 0 82.863 82.267">
  <g id="web_dev_service" data-name="web dev service" transform="translate(-424.568 -3888.254)">
    <path id="Path_21908" data-name="Path 21908" d="M35,13.491C38.948-17.586,70,15.67,70,35A35,35,0,0,1,0,35C0,15.67,31.052,44.568,35,13.491Z" transform="matrix(0.978, -0.208, 0.208, 0.978, 424.407, 3902.05)" fill="#f7901f"/>
    <g id="web_dev" data-name="web dev" transform="translate(433.246 3895.113)">
      <path id="Path_21913" data-name="Path 21913" d="M49,4H13.751A11.5,11.5,0,0,0,2,15.206V37.617A11.5,11.5,0,0,0,13.751,48.822H49A11.5,11.5,0,0,0,60.754,37.617V15.206A11.5,11.5,0,0,0,49,4Zm5.875,33.617A5.751,5.751,0,0,1,49,43.219H13.751a5.751,5.751,0,0,1-5.875-5.6V20.808h47Zm-47-22.411a5.751,5.751,0,0,1,5.875-5.6H49a5.751,5.751,0,0,1,5.875,5.6Z" transform="translate(-2 -4)"/>
    </g>
  </g>
</svg>
