<svg xmlns="http://www.w3.org/2000/svg" width="82.863" height="82.267" viewBox="0 0 82.863 82.267">
  <g id="webman" transform="translate(-1019.568 -3888.254)">
    <path id="Path_21909" data-name="Path 21909" d="M35,13.491C38.948-17.586,70,15.67,70,35A35,35,0,0,1,0,35C0,15.67,31.052,44.568,35,13.491Z" transform="matrix(0.978, -0.208, 0.208, 0.978, 1019.407, 3902.05)" fill="#0bcfdb"/>
    <g id="software-development" transform="translate(1028.246 3891.678)">
      <path id="Path_21913" data-name="Path 21913" d="M49,4H13.751A11.5,11.5,0,0,0,2,15.206V37.617A11.5,11.5,0,0,0,13.751,48.822H49A11.5,11.5,0,0,0,60.754,37.617V15.206A11.5,11.5,0,0,0,49,4Zm5.875,33.617A5.751,5.751,0,0,1,49,43.219H13.751a5.751,5.751,0,0,1-5.875-5.6V20.808h47Zm-47-22.411a5.751,5.751,0,0,1,5.875-5.6H49a5.751,5.751,0,0,1,5.875,5.6Z" transform="translate(-2 -4)"/>
      <path id="Path_21914" data-name="Path 21914" d="M10.283,24.364l5.131,2.964a2.568,2.568,0,0,0,2.566,0l5.131-2.964a2.565,2.565,0,0,0,1.283-2.222V16.219A2.565,2.565,0,0,0,23.111,14l-5.131-2.964a2.577,2.577,0,0,0-2.566,0L10.283,14A2.565,2.565,0,0,0,9,16.219v5.923A2.565,2.565,0,0,0,10.283,24.364ZM14.131,17.7,16.7,16.219,19.262,17.7v2.961L16.7,22.142l-2.566-1.481Z" transform="translate(12.68 9.166)"/>
    </g>
  </g>
</svg>
