<svg width="21" height="21" viewBox="0 0 21 21" fill="none" xmlns="http://www.w3.org/2000/svg">
<path d="M10.5 0C8.4233 0 6.39323 0.615814 4.66652 1.76957C2.9398 2.92332 1.59399 4.5632 0.799269 6.48182C0.00454952 8.40045 -0.203385 10.5116 0.201759 12.5484C0.606904 14.5852 1.60693 16.4562 3.07538 17.9246C4.54383 19.3931 6.41475 20.3931 8.45155 20.7982C10.4884 21.2034 12.5996 20.9955 14.5182 20.2007C16.4368 19.406 18.0767 18.0602 19.2304 16.3335C20.3842 14.6068 21 12.5767 21 10.5C20.9967 7.71623 19.8894 5.04743 17.921 3.07901C15.9526 1.11059 13.2838 0.00328409 10.5 0ZM15.224 13.8753C15.3152 13.9633 15.3879 14.0687 15.438 14.1851C15.488 14.3016 15.5143 14.4268 15.5154 14.5536C15.5165 14.6803 15.4924 14.806 15.4444 14.9233C15.3964 15.0406 15.3255 15.1472 15.2359 15.2368C15.1463 15.3265 15.0397 15.3973 14.9224 15.4453C14.8051 15.4933 14.6794 15.5175 14.5526 15.5164C14.4259 15.5153 14.3006 15.4889 14.1842 15.4389C14.0677 15.3889 13.9624 15.3162 13.8743 15.225L10.5 11.8497L7.12473 15.225C6.9447 15.3989 6.70358 15.4951 6.4533 15.4929C6.20302 15.4907 5.96361 15.3903 5.78663 15.2134C5.60965 15.0364 5.50926 14.797 5.50709 14.5467C5.50491 14.2964 5.60113 14.0553 5.775 13.8753L9.15028 10.5L5.775 7.12473C5.68383 7.03667 5.61111 6.93134 5.56109 6.81488C5.51106 6.69843 5.48473 6.57317 5.48363 6.44643C5.48253 6.31968 5.50668 6.19399 5.55467 6.07668C5.60267 5.95937 5.67355 5.85279 5.76317 5.76317C5.8528 5.67354 5.95937 5.60266 6.07668 5.55467C6.19399 5.50667 6.31969 5.48252 6.44643 5.48362C6.57317 5.48472 6.69843 5.51106 6.81489 5.56108C6.93135 5.61111 7.03668 5.68383 7.12473 5.775L10.5 9.15027L13.8743 5.775C13.9624 5.68383 14.0677 5.61111 14.1842 5.56108C14.3006 5.51106 14.4259 5.48472 14.5526 5.48362C14.6794 5.48252 14.8051 5.50667 14.9224 5.55467C15.0397 5.60266 15.1463 5.67354 15.2359 5.76317C15.3255 5.85279 15.3964 5.95937 15.4444 6.07668C15.4924 6.19399 15.5165 6.31968 15.5154 6.44643C15.5143 6.57317 15.488 6.69843 15.438 6.81488C15.3879 6.93134 15.3152 7.03667 15.224 7.12473L11.8497 10.5L15.224 13.8753Z" fill="#02A2AC"/>
</svg>
