<svg xmlns="http://www.w3.org/2000/svg" width="24.427" height="24.387" viewBox="0 0 24.427 24.387">
  <path id="design_3_" data-name="design(3)" d="M23.663,20.888a.61.61,0,0,1,.091.149L25.344,24.7a.895.895,0,0,1-1.171,1.195L20.439,24.37a.623.623,0,0,1-.161-.1Zm-17.174-3.5,3.151,2.881-.186,2.541A1.777,1.777,0,0,1,8.122,24.4c-.226.064-4.48,1.261-5.49,1.367a1.125,1.125,0,0,1-.562-.1l1.555-1.589a.486.486,0,1,0-.695-.68L1.367,25a1.152,1.152,0,0,1-.126-.62c.105-1.01,1.3-5.264,1.367-5.49A1.778,1.778,0,0,1,4.2,17.552l2.289-.167ZM8.122,24.4l.009,0-.019,0Zm11.3-.646a.624.624,0,0,1-.071-.061l-5.287-5.287c1.247-1,2.585-2.182,3.94-3.5l5.067,5.067a.629.629,0,0,1,.061.071l-3.71,3.71Zm-12.288-7.1a44.653,44.653,0,0,1,6.271-7.594c3.527-3.527,7.009-6.168,9.129-7.088a3.986,3.986,0,0,1,1.577-.4,1.327,1.327,0,0,1,.946.367,1.326,1.326,0,0,1,.367.946,3.981,3.981,0,0,1-.4,1.577c-.92,2.12-3.561,5.6-7.088,9.129a45.527,45.527,0,0,1-7.414,6.16l-3.394-3.1ZM2.608,18.885l0,.01.005-.019ZM8.6,12.942,1.181,5.522a.618.618,0,0,1,0-.873L4.028,1.8a.617.617,0,0,1,.873,0L12.1,9C10.784,10.358,9.6,11.7,8.6,12.942Z" transform="translate(-1 -1.58)" fill-rule="evenodd"/>
</svg>
