<svg xmlns="http://www.w3.org/2000/svg" width="21" height="21" viewBox="0 0 21 21">
  <g id="insta_c" data-name="insta c" transform="translate(-7949 11239)">
    <g id="Ellipse_4" data-name="Ellipse 4" transform="translate(7949 -11239)" fill="none" stroke="#fff" stroke-width="1">
      <circle cx="10.5" cy="10.5" r="10.5" stroke="none"/>
      <circle cx="10.5" cy="10.5" r="10" fill="none"/>
    </g>
    <path id="Icon_simple-instagram" data-name="Icon simple-instagram" d="M5.371,0C3.912,0,3.73.007,3.157.032a3.961,3.961,0,0,0-1.3.25A2.63,2.63,0,0,0,.9.9a2.621,2.621,0,0,0-.619.952,3.949,3.949,0,0,0-.25,1.3C.005,3.73,0,3.912,0,5.371S.007,7.013.032,7.586a3.963,3.963,0,0,0,.25,1.3A2.634,2.634,0,0,0,.9,9.841a2.627,2.627,0,0,0,.952.619,3.966,3.966,0,0,0,1.3.25c.573.027.755.032,2.214.032s1.641-.007,2.214-.032a3.975,3.975,0,0,0,1.3-.25A2.745,2.745,0,0,0,10.461,8.89a3.963,3.963,0,0,0,.25-1.3c.027-.573.032-.755.032-2.214s-.007-1.641-.032-2.214a3.972,3.972,0,0,0-.25-1.3A2.636,2.636,0,0,0,9.841.9,2.617,2.617,0,0,0,8.89.282a3.952,3.952,0,0,0-1.3-.25C7.013.005,6.831,0,5.371,0Zm0,.967c1.434,0,1.6.007,2.171.032a2.959,2.959,0,0,1,1,.186A1.768,1.768,0,0,1,9.559,2.2a2.966,2.966,0,0,1,.185,1c.026.567.031.737.031,2.171s-.007,1.6-.033,2.171a3.023,3.023,0,0,1-.188,1,1.706,1.706,0,0,1-.4.619,1.676,1.676,0,0,1-.618.4,2.987,2.987,0,0,1-1,.185c-.57.026-.738.031-2.175.031s-1.605-.007-2.175-.033a3.046,3.046,0,0,1-1-.188,1.663,1.663,0,0,1-.617-.4,1.631,1.631,0,0,1-.4-.618,3.048,3.048,0,0,1-.188-1C.954,6.969.947,6.795.947,5.365S.954,3.76.974,3.189a3.045,3.045,0,0,1,.188-1,1.592,1.592,0,0,1,.4-.618,1.589,1.589,0,0,1,.617-.4A2.973,2.973,0,0,1,3.176.98C3.747.96,3.915.953,5.351.953l.02.013Zm0,1.646A2.758,2.758,0,1,0,8.13,5.371,2.758,2.758,0,0,0,5.371,2.613Zm0,4.549a1.79,1.79,0,1,1,1.79-1.79A1.79,1.79,0,0,1,5.371,7.162ZM8.883,2.5a.645.645,0,1,1-.645-.644A.645.645,0,0,1,8.883,2.5Z" transform="translate(7954 -11234)" fill="#fff"/>
  </g>
</svg>
