<svg xmlns="http://www.w3.org/2000/svg" width="21" height="21" viewBox="0 0 21 21">
  <g id="link_c" data-name="link c" transform="translate(-7921 11239)">
    <g id="Ellipse_3" data-name="Ellipse 3" transform="translate(7921 -11239)" fill="none" stroke="#fff" stroke-width="1">
      <circle cx="10.5" cy="10.5" r="10.5" stroke="none"/>
      <circle cx="10.5" cy="10.5" r="10" fill="none"/>
    </g>
    <path id="Icon_awesome-linkedin-in" data-name="Icon awesome-linkedin-in" d="M2.1,9.4H.155V3.125H2.1ZM1.129,2.269A1.134,1.134,0,1,1,2.257,1.129,1.138,1.138,0,0,1,1.129,2.269ZM9.4,9.4H7.453V6.345c0-.728-.015-1.662-1.013-1.662s-1.168.791-1.168,1.609V9.4H3.325V3.125H5.194v.856h.027A2.048,2.048,0,0,1,7.065,2.967c1.972,0,2.335,1.3,2.335,2.986V9.4Z" transform="translate(7927.134 -11233.449)" fill="#fff"/>
  </g>
</svg>
