<svg xmlns="http://www.w3.org/2000/svg" width="27.921" height="28" viewBox="0 0 27.921 28">
  <g id="messagenotif" transform="translate(-1.25 -1.25)">
    <path id="Path_1159" data-name="Path 1159" d="M28.421,12.568v3.963q0,7.926-7.926,7.926h-.661a1.339,1.339,0,0,0-1.057.528L16.8,27.628a1.877,1.877,0,0,1-3.17,0l-1.982-2.642a1.493,1.493,0,0,0-1.057-.528H9.926C4.642,24.458,2,23.137,2,16.531V9.926Q2,2,9.926,2h7.926" fill="none" stroke="#fff" stroke-linecap="round" stroke-linejoin="round" stroke-miterlimit="10" stroke-width="1.5"/>
    <path id="Path_1160" data-name="Path 1160" d="M20.3,8.605a3.3,3.3,0,1,0-2.335-.967A3.3,3.3,0,0,0,20.3,8.605Z" transform="translate(4.816)" fill="none" stroke="#fff" stroke-linecap="round" stroke-linejoin="round" stroke-width="1.5"/>
    <path id="Path_1161" data-name="Path 1161" d="M18.565,11h.013m-5.3,0h.013M8,11h.011" transform="translate(1.925 2.889)" fill="none" stroke="#fff" stroke-linecap="round" stroke-linejoin="round" stroke-width="2"/>
  </g>
</svg>
