<svg xmlns="http://www.w3.org/2000/svg" width="19.585" height="27.513" viewBox="0 0 19.585 27.513">
  <g id="phone" transform="translate(-7.92 -2.92)">
    <path id="Path_7189" data-name="Path 7189" d="M23.99,2.92H11.435A3.307,3.307,0,0,0,7.92,5.97V27.383a3.307,3.307,0,0,0,3.515,3.05H23.99a3.307,3.307,0,0,0,3.515-3.05V5.97A3.307,3.307,0,0,0,23.99,2.92Zm.9,24.463a.844.844,0,0,1-.9.778H11.435a.844.844,0,0,1-.9-.778V5.97a.844.844,0,0,1,.9-.778H23.99a.844.844,0,0,1,.9.778Z"/>
    <path id="Path_7190" data-name="Path 7190" d="M17,23.92H15a1.08,1.08,0,1,0,0,2.16h2a1.08,1.08,0,0,0,0-2.16Z" transform="translate(1.713 1.353)"/>
  </g>
</svg>
