<svg xmlns="http://www.w3.org/2000/svg" width="21" height="20" viewBox="0 0 21 20">
  <g id="twiter_c" data-name="twiter c" transform="translate(-7869 11238)">
    <g id="Ellipse_1" data-name="Ellipse 1" transform="translate(7869 -11238)" fill="none" stroke="#fff" stroke-width="1">
      <ellipse cx="10.5" cy="10" rx="10.5" ry="10" stroke="none"/>
      <ellipse cx="10.5" cy="10" rx="10" ry="9.5" fill="none"/>
    </g>
    <path id="Icon_awesome-twitter" data-name="Icon awesome-twitter" d="M9.638,5.555c.007.1.007.191.007.286a6.221,6.221,0,0,1-6.264,6.264A6.222,6.222,0,0,1,0,11.117a4.555,4.555,0,0,0,.532.027A4.409,4.409,0,0,0,3.265,10.2,2.206,2.206,0,0,1,1.207,8.677a2.777,2.777,0,0,0,.416.034A2.329,2.329,0,0,0,2.2,8.636,2.2,2.2,0,0,1,.436,6.475V6.448a2.217,2.217,0,0,0,1,.279A2.2,2.2,0,0,1,.75,3.783a6.258,6.258,0,0,0,4.54,2.3,2.485,2.485,0,0,1-.055-.5,2.2,2.2,0,0,1,3.81-1.506,4.335,4.335,0,0,0,1.4-.532,2.2,2.2,0,0,1-.968,1.213,4.414,4.414,0,0,0,1.268-.341,4.733,4.733,0,0,1-1.1,1.138Z" transform="translate(7874.278 -11234.895)" fill="#fff"/>
  </g>
</svg>
